<svg width="75" height="61" viewBox="0 0 75 61" fill="none" xmlns="http://www.w3.org/2000/svg">
<path fill-rule="evenodd" clip-rule="evenodd" d="M29.6788 0.154567C29.6127 0.233543 29.5263 0.278168 29.4865 0.253779C29.2868 0.131112 28.5605 0.125509 28.336 0.244855C28.1635 0.336595 27.983 0.350709 27.7673 0.289272C27.37 0.176049 25.0898 0.276196 24.9225 0.414118C24.8392 0.48282 24.7851 0.478047 24.7588 0.399589C24.7134 0.26395 23.0022 0.472857 23.0022 0.613997C23.0022 0.659245 22.9047 0.670868 22.7857 0.639942C22.5282 0.573004 21.772 0.793016 21.5134 1.00991C21.3731 1.1276 21.2735 1.13798 21.0884 1.05423C20.808 0.927306 20.2584 1.00161 20.3531 1.15365C20.3923 1.21695 20.3317 1.22972 20.1959 1.18696C20.0229 1.13237 19.9882 1.15261 20.0372 1.27964C20.0743 1.37563 20.0445 1.44205 19.9644 1.44205C19.8838 1.44205 19.9109 1.5038 20.0316 1.5944C20.2233 1.73855 20.2159 1.74695 19.8949 1.75007C19.7082 1.75194 19.5554 1.7125 19.5554 1.66258C19.5554 1.51937 19.0073 1.55683 18.8525 1.71053C18.7507 1.81161 18.6407 1.82219 18.4483 1.74944C18.0811 1.61069 17.9854 1.62429 18.0553 1.80528C18.0951 1.90812 18.0517 1.96095 17.9277 1.96095C17.7518 1.96095 17.7524 1.97008 17.9378 2.10479C18.0914 2.21645 18.1952 2.22268 18.4017 2.13281C18.5479 2.06919 18.6956 1.97828 18.7298 1.93095C18.7641 1.88353 18.8653 1.95586 18.9548 2.09161C19.1067 2.322 19.1029 2.34773 18.8974 2.47517C18.739 2.57345 18.6659 2.57874 18.6375 2.49396C18.592 2.35811 18.302 2.33217 18.302 2.46386C18.302 2.51222 18.376 2.69902 18.4663 2.87898C18.6083 3.16167 18.6858 3.2063 19.0346 3.2063C19.2568 3.2063 19.4706 3.15493 19.5096 3.09204C19.5505 3.02645 19.7109 3.00372 19.8866 3.03859C20.0549 3.07201 20.1689 3.06163 20.1402 3.01545C20.0451 2.86237 20.5453 2.94384 20.6749 3.10252C20.7449 3.18814 20.8037 3.20931 20.8054 3.14963C20.8075 3.08249 21.1768 3.03973 21.7749 3.03755C23.5549 3.03091 24.4642 2.9564 24.4644 2.81713C24.4645 2.66187 24.7451 2.64195 24.7961 2.79367C24.8486 2.95027 25.6196 3.05302 25.7055 2.91489C25.7558 2.83404 25.9796 2.82896 26.4669 2.89755C27.3971 3.02842 28.6256 2.984 28.6901 2.81713C28.7603 2.63572 28.9558 2.65481 28.9558 2.84307C28.9558 2.92869 29.0251 2.99874 29.1098 2.99874C29.217 2.99874 29.2529 2.91188 29.2277 2.71335C29.2079 2.55633 29.2125 2.48638 29.238 2.55768C29.2636 2.62908 29.3515 2.6874 29.4334 2.6874C29.5154 2.6874 29.5825 2.75745 29.5825 2.84307C29.5825 2.95546 29.6985 2.99874 30.0002 2.99874C30.302 2.99874 30.418 2.95546 30.418 2.84307C30.418 2.64672 30.5118 2.64568 30.7274 2.83944C30.83 2.9318 31.1563 3.00175 31.5573 3.01752C32.1663 3.04139 32.2376 3.02074 32.4686 2.75392L32.7191 2.46448L32.4972 2.15491C32.3752 1.98461 32.2987 1.82199 32.3274 1.79355C32.4007 1.7207 32.9248 2.21936 32.9248 2.36205C32.9248 2.42681 32.9718 2.47984 33.0293 2.47984C33.2437 2.47984 33.124 2.68584 32.8733 2.74842C32.3735 2.87296 32.7347 2.99874 33.5924 2.99874C34.0678 2.99874 34.489 3.03081 34.5285 3.07003C34.6247 3.16572 35.0138 3.19011 35.0138 3.10055C35.0138 3.00279 36.0795 3.03392 36.2418 3.13656C36.323 3.18782 36.397 3.15752 36.4357 3.05717C36.5165 2.84816 36.7894 2.84587 36.7894 3.05426C36.7894 3.18201 36.8313 3.19135 37.0005 3.10138C37.1165 3.03963 37.2575 3.01742 37.3138 3.05198C37.37 3.08654 37.4161 3.02126 37.4161 2.90689C37.4161 2.71978 37.4498 2.72985 37.7555 3.00818C38.0173 3.24646 38.1027 3.28071 38.1287 3.15794C38.1711 2.95847 38.2257 2.95816 38.4251 3.15628C38.6211 3.35097 39.4003 3.32689 39.3238 3.12846C39.2545 2.94861 39.4868 2.96574 39.6767 3.15441C39.7688 3.24594 40.024 3.31008 40.2958 3.31008C40.5682 3.31008 40.7584 3.35792 40.7584 3.42652C40.7584 3.51224 40.7955 3.51245 40.8986 3.42745C40.9757 3.36394 41.058 3.32969 41.0814 3.35138C41.1744 3.43772 42.1214 3.53517 43.202 3.56963C43.9605 3.59391 44.3667 3.64892 44.4201 3.73474C44.5103 3.87993 44.8998 3.89892 45.495 3.78736C45.8014 3.72986 45.8781 3.74242 45.8173 3.83997C45.7623 3.9286 45.7901 3.94801 45.9082 3.90307C46.002 3.86727 46.1052 3.88065 46.1375 3.93275C46.1699 3.98485 46.2632 4.00197 46.3448 3.97094C46.4263 3.93981 46.5532 3.95133 46.6269 3.99647C46.8269 4.11935 47.1298 4.12049 47.1298 3.99844C47.1298 3.93431 47.1801 3.94126 47.2551 4.01577C47.3241 4.08427 47.5063 4.14031 47.6602 4.14031C47.814 4.14031 48.1168 4.21379 48.333 4.30355C48.5492 4.39332 48.8338 4.43992 48.9653 4.40713C49.0967 4.37433 49.3359 4.39727 49.4966 4.45798C49.7011 4.53519 49.7999 4.5355 49.8256 4.45891C49.8511 4.38284 49.9241 4.38243 50.0649 4.45725C50.1763 4.51651 50.3136 4.53675 50.3699 4.50219C50.4261 4.46763 50.4721 4.51225 50.4721 4.60119C50.4721 4.70456 50.5664 4.76298 50.7333 4.76298C50.8769 4.76298 50.9944 4.71296 50.9944 4.65184C50.9944 4.59061 51.0682 4.61396 51.1585 4.70373C51.3242 4.86832 51.5693 4.93298 51.4815 4.78893C51.4554 4.74617 51.4997 4.6509 51.5798 4.57732C51.7016 4.46545 51.7255 4.48683 51.7255 4.70705C51.7255 4.97251 51.8671 5.05907 51.9866 4.86676C52.0222 4.80969 52.1072 4.76672 52.1756 4.77118C52.2653 4.7771 52.2635 4.79402 52.1694 4.83169C51.9291 4.9281 52.0355 5.07432 52.3461 5.07432C52.5151 5.07432 52.6828 5.12175 52.7188 5.17976C52.755 5.23777 52.8303 5.25718 52.8863 5.22273C52.9422 5.18838 53.0519 5.21287 53.1299 5.27721C53.208 5.34155 53.5333 5.40476 53.853 5.41762C54.1727 5.43049 54.4922 5.49857 54.563 5.56893C54.6339 5.6394 54.7671 5.697 54.859 5.697C54.9509 5.697 55.0856 5.75543 55.1584 5.82672C55.2646 5.93071 55.3177 5.92033 55.4259 5.77483C55.5675 5.5845 55.7541 5.51736 55.6423 5.697C55.6068 5.75408 55.6276 5.80659 55.6884 5.81375C56.0269 5.8535 56.5344 6.12498 56.4685 6.23105C56.4181 6.3122 56.4873 6.33181 56.9481 6.3672C57.0343 6.37385 57.1635 6.41536 57.2353 6.45936C57.307 6.50347 57.3657 6.51177 57.3657 6.47783C57.3657 6.4439 57.4716 6.47596 57.6008 6.54902C57.73 6.62208 57.9063 6.68435 57.9924 6.68726C58.0786 6.69016 58.1411 6.73769 58.1312 6.79291C58.1214 6.84812 58.2271 6.9466 58.3663 7.01178C58.5767 7.11047 58.6191 7.10321 58.6191 6.9684C58.6191 6.82518 58.6413 6.82632 58.8102 6.97815C58.9152 7.07259 59.0562 7.14991 59.1235 7.14991C59.1908 7.14991 59.2458 7.19246 59.2458 7.24445C59.2458 7.38694 60.1081 7.77258 60.4268 7.77258C60.5932 7.77258 60.7592 7.85654 60.8368 7.98014C60.9085 8.0943 61.0527 8.1877 61.1572 8.1877C61.2617 8.1877 61.3181 8.141 61.2826 8.08392C61.2471 8.02684 61.2584 7.98014 61.3077 7.98014C61.4601 7.98014 61.6481 8.21977 61.6481 8.41404C61.6481 8.57531 61.7623 8.63893 62.2748 8.76326C62.3035 8.77021 62.4594 8.8303 62.6211 8.89692C62.7828 8.96345 62.9826 9.01793 63.065 9.01793C63.1474 9.01793 63.2149 9.09296 63.2149 9.1847C63.2149 9.29212 63.272 9.32968 63.3755 9.29025C63.4669 9.25538 63.5617 9.29533 63.5956 9.38292C63.6283 9.46761 63.7022 9.53683 63.7599 9.53683C63.8175 9.53683 64.147 9.81641 64.4919 10.1582C64.8369 10.4999 65.1545 10.7578 65.1976 10.7314C65.2406 10.705 65.3615 10.7772 65.466 10.8921C65.5707 11.0069 65.7121 11.0795 65.7803 11.0535C65.8486 11.0275 65.9635 11.1309 66.0357 11.2833C66.1121 11.4447 66.1865 11.5063 66.214 11.4308C66.3013 11.1911 66.4528 11.2983 66.4528 11.5998C66.4528 11.7639 66.5204 11.9542 66.6033 12.0224C66.686 12.0906 66.7682 12.2705 66.7861 12.4219C66.806 12.5923 66.9179 12.7463 67.0795 12.8258C67.4746 13.0203 68.0195 13.5887 68.0195 13.8063C68.0195 14.0244 68.1836 14.0669 68.2637 13.8696C68.3004 13.7793 68.3188 13.7863 68.3246 13.8924C68.3291 13.9763 68.4702 14.1631 68.6379 14.3076C68.8438 14.4847 68.9542 14.6883 68.9774 14.9333C69.0018 15.1917 69.0721 15.3128 69.2206 15.3526C69.3466 15.3863 69.442 15.5128 69.4608 15.6712C69.478 15.8156 69.7247 16.1866 70.0091 16.4956C70.2935 16.8046 70.5263 17.1165 70.5263 17.1889C70.5263 17.2611 70.5628 17.3203 70.6075 17.3203C70.6522 17.3203 70.7725 17.6005 70.8749 17.9429C70.9808 18.2973 71.1205 18.5656 71.1992 18.5656C71.2753 18.5656 71.3658 18.6707 71.4005 18.7991C71.4957 19.1524 71.485 19.1728 71.2313 19.1196C71.0243 19.0761 71.018 19.0841 71.1791 19.1863C71.2795 19.2501 71.3618 19.3608 71.3618 19.4322C71.3618 19.682 71.6245 20.112 71.8057 20.1591C71.9494 20.1965 71.9885 20.3189 71.9885 20.7303C71.9885 21.0184 72.0446 21.3764 72.1131 21.5259C72.2148 21.7474 72.21 21.8158 72.087 21.896C71.9589 21.9795 71.9641 22.0154 72.1221 22.1357C72.2896 22.2631 72.2912 22.2835 72.1391 22.3415C71.994 22.3968 72.0081 22.4505 72.2406 22.725C72.3892 22.9005 72.514 23.0988 72.518 23.1658C72.5219 23.2328 72.5512 23.4277 72.5831 23.5989C72.6843 24.1439 72.6339 24.7297 72.476 24.8445C72.3443 24.94 72.344 24.9917 72.4732 25.2368C72.555 25.3919 72.6683 25.5188 72.725 25.5188C72.7817 25.5188 72.8025 25.6238 72.7712 25.7523C72.7399 25.8808 72.698 26.186 72.6783 26.4307C72.6585 26.6754 72.6125 26.9052 72.5762 26.9413C72.5398 26.9774 72.5847 27.1202 72.676 27.2587C72.8314 27.4945 72.8276 27.5255 72.6131 27.7523C72.4874 27.8853 72.4131 28.0403 72.4482 28.0968C72.4834 28.1532 72.4535 28.2187 72.3821 28.2424C72.2785 28.2768 72.2784 28.3429 72.3819 28.5686C72.4752 28.7719 72.4809 28.9089 72.4023 29.0548C72.3188 29.2098 72.3283 29.2715 72.4425 29.315C72.5305 29.3486 72.5703 29.4549 72.5393 29.573C72.4734 29.8234 72.3021 29.8372 72.3013 29.5922C72.3008 29.4719 72.2468 29.513 72.1414 29.7138C72.0241 29.9373 72.014 30.0366 72.1032 30.0914C72.1698 30.1322 72.1942 30.2138 72.1576 30.2727C72.121 30.3316 72.1618 30.4501 72.2484 30.536C72.41 30.6967 72.3618 31.0051 72.1528 31.1473C72.0741 31.2008 72.0753 31.224 72.1568 31.2251C72.2242 31.2261 72.2519 31.3357 72.223 31.4861C72.1918 31.6481 72.1026 31.7456 71.9855 31.7456C71.846 31.7456 71.8056 31.8141 71.8276 32.0134C71.8446 32.1674 71.7963 32.3044 71.7139 32.3359C71.6331 32.3667 71.5707 32.538 71.5707 32.7296C71.5707 33.2109 71.4553 33.7229 71.3601 33.6644C71.3157 33.6372 71.2524 33.6846 71.2194 33.7699C71.1865 33.8552 71.2066 33.9249 71.2644 33.9249C71.3313 33.9249 71.3279 34.0016 71.2547 34.1375C71.1755 34.2846 71.0778 34.3304 70.9377 34.2862C70.7073 34.2134 70.6724 34.3362 70.8657 34.5398C70.9702 34.6498 70.9702 34.6869 70.8657 34.7249C70.7938 34.751 70.7351 34.8282 70.7351 34.8964C70.7351 34.9646 70.6375 35.1035 70.5181 35.2051C70.338 35.3582 70.313 35.4603 70.3715 35.804C70.4298 36.1474 70.4048 36.2503 70.2248 36.4054C70.1054 36.5082 70.0383 36.6227 70.0756 36.6597C70.1128 36.6967 70.0709 36.727 69.9823 36.727C69.8867 36.727 69.7956 36.8541 69.7583 37.0395C69.7205 37.2271 69.5983 37.3959 69.4524 37.4619C69.1843 37.5834 68.9078 37.9555 69.0102 38.0572C69.046 38.0928 69.119 38.0533 69.1725 37.9693C69.2383 37.866 69.2702 37.8585 69.2713 37.9464C69.2721 38.0178 69.1789 38.1695 69.064 38.2837C68.9491 38.3978 68.8551 38.5379 68.8551 38.595C68.8551 38.6521 68.8015 38.6988 68.736 38.6988C68.5312 38.6988 68.3363 39.0449 68.4587 39.1914C68.5357 39.2836 68.5299 39.3215 68.4389 39.3215C68.3676 39.3215 68.3372 39.3908 68.3706 39.4771C68.4037 39.5627 68.3852 39.6328 68.3296 39.6328C68.2739 39.6328 68.2284 39.6974 68.2284 39.7763C68.2284 39.8553 68.1344 39.9443 68.0195 39.9742C67.8945 40.0067 67.8106 40.1158 67.8106 40.2457C67.8106 40.3653 67.7608 40.463 67.7 40.463C67.6392 40.463 67.6164 40.5065 67.6494 40.5596C67.6825 40.6128 67.6565 40.6888 67.5918 40.7286C67.5269 40.7683 67.4402 40.7468 67.399 40.6804C67.3545 40.6089 67.2677 40.7298 67.185 40.9785C67.1 41.2344 66.9814 41.397 66.8796 41.397C66.788 41.397 66.5801 41.5371 66.4175 41.7084C66.2548 41.8796 66.0787 42.0197 66.0261 42.0197C65.9736 42.0197 65.9305 42.1074 65.9305 42.2146C65.9305 42.3217 65.86 42.4675 65.7738 42.5386C65.6877 42.6097 65.6172 42.7322 65.6172 42.8107C65.6172 42.8894 65.5518 42.9537 65.4718 42.9537C65.3919 42.9537 65.2968 43.0709 65.2607 43.2141C65.1966 43.4678 64.4511 44.0953 64.2137 44.0953C64.0615 44.0953 62.5396 45.5651 62.449 45.7996C62.4115 45.8968 62.337 45.9496 62.2836 45.9168C62.2301 45.8839 62.0824 46.002 61.9555 46.1793C61.7796 46.4246 61.7032 46.4682 61.6348 46.362C61.5662 46.2557 61.4813 46.3025 61.2757 46.5601C61.1275 46.7455 60.9426 46.8973 60.8648 46.8973C60.787 46.8973 60.6308 47.0141 60.5179 47.1568C60.4049 47.2995 60.2663 47.4162 60.2098 47.4162C60.1533 47.4162 60.049 47.4856 59.9783 47.5703C59.9075 47.655 59.6432 47.8268 59.391 47.9519C59.1389 48.0771 58.9325 48.2179 58.9325 48.2648C58.9325 48.3118 58.8643 48.3502 58.781 48.3502C58.6977 48.3502 58.592 48.4086 58.546 48.48C58.5001 48.5514 58.1899 48.792 57.857 49.0148C57.5239 49.2378 57.206 49.5043 57.1506 49.6071C57.0952 49.7101 56.893 49.8235 56.7012 49.8592C56.5095 49.8949 56.2175 50.0487 56.0525 50.2009C55.8875 50.3532 55.6789 50.4825 55.5891 50.4884C55.4991 50.4943 55.2285 50.6228 54.9877 50.7738C54.7468 50.9249 54.5056 51.0485 54.4517 51.0485C54.3101 51.0485 53.7115 51.3989 53.7107 51.4822C53.7091 51.6565 53.3543 51.8787 53.0775 51.8787C52.9101 51.8787 52.544 52.0188 52.2639 52.1901C51.9838 52.3613 51.671 52.5014 51.5689 52.5014C51.4667 52.5014 51.1507 52.6435 50.8668 52.817C50.5828 52.9906 50.2016 53.1613 50.0197 53.1962C49.8376 53.2312 49.5766 53.3694 49.4396 53.5033C49.1933 53.7439 49.0596 53.7855 48.6368 53.7532C48.5178 53.7442 48.1888 53.8495 47.9056 53.9872C47.6226 54.125 47.1324 54.3236 46.8165 54.4286C46.5005 54.5336 46.1678 54.6799 46.0771 54.7539C45.9864 54.8278 45.7965 54.8883 45.6551 54.8883C45.2811 54.8883 44.22 55.1765 43.7283 55.4117C43.4948 55.5234 43.1306 55.6148 42.9189 55.6148C42.6464 55.6148 42.5341 55.6602 42.5341 55.7705C42.5341 55.8898 42.4013 55.9261 41.9658 55.9261C41.6531 55.9261 41.3684 55.9728 41.3329 56.0299C41.2974 56.087 41.1805 56.1337 41.073 56.1337C40.9657 56.1337 40.8025 56.2084 40.7106 56.2998C40.606 56.4037 40.4524 56.4433 40.3008 56.4055C40.1675 56.3723 40.0253 56.3778 39.985 56.4179C39.9447 56.458 39.7478 56.4767 39.5476 56.4595C39.1967 56.4296 39.1861 56.439 39.2523 56.7221C39.3125 56.9794 39.3033 56.995 39.178 56.8487C39.019 56.6629 38.6695 56.5131 38.6695 56.6309C38.6695 56.6724 38.5718 56.767 38.4524 56.8411C38.2849 56.9451 38.2014 56.9479 38.087 56.8535C37.9136 56.7105 37.3462 56.8966 37.1322 57.1666C37.0374 57.2861 37.004 57.2921 37.0016 57.1894C36.9977 57.025 36.2595 57.0508 36.1366 57.2196C36.085 57.2905 36.0269 57.2789 35.9664 57.1857C35.9025 57.0871 35.8624 57.0806 35.8344 57.1641C35.812 57.231 35.532 57.2971 35.2014 57.3136C34.8753 57.3299 34.547 57.3939 34.4717 57.4557C34.3965 57.5176 33.7017 57.5985 32.9278 57.6356C32.1541 57.6726 31.4687 57.746 31.4049 57.7986C31.3411 57.8512 30.8088 57.9128 30.2221 57.9353C29.6354 57.9579 29.1265 58.005 29.0912 58.04C29.056 58.0751 28.9699 58.0564 28.8998 57.9986C28.823 57.9353 28.6736 57.9282 28.5246 57.9808C28.3883 58.0288 28.0183 58.0592 27.7024 58.0482C27.3864 58.0373 27.0739 58.0708 27.008 58.1227C26.942 58.1747 26.754 58.1898 26.5902 58.1563C25.945 58.0246 25.764 57.9959 25.6134 58.0012C25.5272 58.0043 25.1277 58.0124 24.7256 58.0193C24.3224 58.0263 23.96 58.0834 23.9177 58.1466C23.8639 58.2269 23.8405 58.2234 23.8394 58.1346C23.8385 58.0651 23.7673 58.0351 23.6811 58.0679C23.5949 58.1008 23.5244 58.1911 23.5244 58.2686C23.5244 58.3462 23.4314 58.459 23.3176 58.5195C23.1289 58.6199 23.1162 58.603 23.1719 58.326C23.2197 58.0889 23.1906 58.0096 23.0393 57.9631C22.7748 57.8818 22.3127 57.9419 22.1463 58.0791C22.046 58.1618 21.9552 58.1527 21.8069 58.045C21.6865 57.9575 21.3479 57.8966 20.9716 57.8946C20.5806 57.8926 20.2611 57.833 20.1353 57.7385C20.0234 57.6544 19.8495 57.6116 19.7488 57.6434C19.6483 57.6751 19.4248 57.6286 19.2525 57.5401C19.0801 57.4515 18.8142 57.379 18.6616 57.379C18.4423 57.379 18.3977 57.4171 18.4489 57.5606C18.4971 57.696 18.4667 57.6854 18.3295 57.5189C18.1899 57.3497 18.0252 57.2941 17.6492 57.2893C17.3317 57.2851 17.1493 57.3282 17.1426 57.4087C17.1369 57.478 17.0996 57.4179 17.0596 57.2753C17.0197 57.1326 16.9421 57.0118 16.8873 57.0069C16.8324 57.0019 16.7075 56.9628 16.6097 56.9198C16.512 56.8768 16.3827 56.872 16.3225 56.9089C16.2623 56.946 16.213 56.9267 16.213 56.8663C16.213 56.6809 15.8136 56.7445 15.7628 56.938C15.7221 57.0927 15.7133 57.0945 15.7029 56.9498C15.6945 56.831 15.5496 56.7588 15.2208 56.7099C14.9198 56.665 14.7508 56.5873 14.7508 56.4938C14.7508 56.4056 14.6877 56.3718 14.5914 56.4085C14.4685 56.4554 14.4596 56.5021 14.552 56.6128C14.6184 56.6924 14.6269 56.7564 14.5708 56.7564C14.4352 56.7564 14.1241 56.4073 14.1241 56.2552C14.1241 56.0772 13.6355 56.107 13.3338 56.3034C13.0397 56.4948 12.8787 56.426 13.074 56.1923C13.1809 56.0644 13.1568 56.0271 12.9308 55.9707C12.7814 55.9335 12.6135 55.8264 12.558 55.7329C12.4689 55.5834 12.4439 55.5817 12.3505 55.7186C12.2729 55.8322 12.2619 55.7833 12.3094 55.537C12.3602 55.2743 12.3389 55.1997 12.2135 55.1997C12.1249 55.1997 12.0366 55.1522 12.0171 55.0941C11.9976 55.0361 11.8409 54.9673 11.6689 54.9413C11.0591 54.8488 10.998 54.8228 10.7395 54.5458C10.5959 54.3916 10.405 54.2657 10.3153 54.2657C10.0791 54.2657 9.73474 54.0488 9.44322 53.7165C9.30347 53.5571 9.13614 53.4445 9.07149 53.4661C9.00683 53.4878 8.89664 53.4314 8.82666 53.3408C8.71041 53.1903 8.69913 53.1903 8.6961 53.3409C8.68983 53.6488 8.12623 53.502 7.70415 53.0828C7.48962 52.8696 7.34005 52.6693 7.37169 52.6378C7.40345 52.6062 7.36313 52.5146 7.28218 52.4342C7.20113 52.3537 7.1487 52.2309 7.16562 52.1611C7.18243 52.0914 7.17648 52.0694 7.15246 52.1122C7.0525 52.2898 6.91713 52.1705 6.91703 51.9047C6.91703 51.6673 6.86919 51.6165 6.63303 51.6029C6.47688 51.5939 6.33201 51.5355 6.31102 51.4732C6.29013 51.4108 6.22495 51.3598 6.16615 51.3598C6.10734 51.3598 6.08625 51.4299 6.11936 51.5155C6.15236 51.6011 6.13941 51.6712 6.09042 51.6712C5.90158 51.6712 5.90555 51.2855 6.09565 51.1676C6.39928 50.9792 6.3482 50.702 6.02117 50.7641C5.82815 50.8008 5.67848 50.7424 5.49256 50.5576C5.34999 50.416 5.25891 50.2746 5.29024 50.2435C5.32158 50.2123 5.26559 50.1277 5.16595 50.0552C5.06641 49.9829 4.98275 49.8615 4.98014 49.7856C4.97753 49.7096 4.92154 49.6582 4.85584 49.6713C4.79025 49.6844 4.70732 49.6039 4.6717 49.4924C4.63608 49.3809 4.49518 49.2023 4.35856 49.0955C4.18842 48.9626 4.09985 48.7737 4.07749 48.4961C4.05357 48.1992 3.94704 47.9912 3.67923 47.7183C3.34145 47.3742 3.31335 47.2963 3.30948 46.6939C3.30572 46.1201 3.27209 46.0136 3.02862 45.8055C2.76176 45.5775 2.75967 45.5671 2.96804 45.5129C3.13234 45.4703 3.16357 45.4117 3.0985 45.269C3.0515 45.1657 2.99415 44.8127 2.97128 44.4845C2.9412 44.0543 2.88772 43.8877 2.77951 43.8877C2.6971 43.8877 2.57772 43.7593 2.51432 43.6023C2.36788 43.2397 2.32537 42.5386 2.44987 42.5386C2.50178 42.5386 2.514 42.4336 2.47682 42.3051C2.43964 42.1766 2.38752 41.9937 2.36099 41.8985C2.33383 41.801 2.45154 41.5683 2.63046 41.3659C2.9787 40.9719 3.01463 40.8781 2.81753 40.8781C2.72436 40.8781 2.68843 40.6573 2.69198 40.1066C2.69501 39.6483 2.6571 39.3596 2.5985 39.3956C2.53991 39.4316 2.52758 39.3343 2.56811 39.1553C2.6055 38.9898 2.66545 38.7027 2.70139 38.5172C2.73721 38.3317 2.80928 38.1799 2.8615 38.1799C2.95749 38.1799 2.97222 37.9794 2.97086 36.6941C2.97024 36.1528 3.0022 35.999 3.10706 36.0389C3.29737 36.1115 3.37957 35.8424 3.26144 35.5335C3.16033 35.2692 3.21767 34.9627 3.36839 34.9627C3.41487 34.9627 3.47295 35.0211 3.49739 35.0925C3.52172 35.1639 3.56455 35.0705 3.59243 34.8849C3.62022 34.6993 3.61594 34.5476 3.58283 34.5475C3.54972 34.5475 3.51671 34.419 3.50971 34.2621C3.50261 34.1052 3.51922 34.0381 3.54658 34.1129C3.58512 34.2181 3.64142 34.2086 3.79454 34.0708C4.05274 33.8387 4.04741 33.6136 3.78368 33.6136C3.66336 33.6136 3.57478 33.6828 3.57478 33.7766C3.57478 33.9216 3.55734 33.9224 3.41811 33.7841C3.21976 33.587 3.21976 33.5098 3.41811 33.5098C3.50428 33.5098 3.57478 33.4577 3.57478 33.3939C3.57478 33.3302 3.66064 33.3004 3.76551 33.3276C4.01858 33.3934 4.44494 32.7785 4.43314 32.3648C4.4276 32.1695 4.47649 32.0569 4.56694 32.0569C4.7115 32.0569 4.86023 31.7482 4.80571 31.5616C4.78931 31.5056 4.91214 31.3067 5.07853 31.1196C5.35177 30.8121 5.3644 30.767 5.20909 30.6542C4.96698 30.4783 4.99246 30.4227 5.35041 30.3446C5.66511 30.2759 5.78846 29.9664 5.55763 29.8246C5.49925 29.7887 5.4817 29.7108 5.51878 29.6512C5.55575 29.5917 5.53497 29.5116 5.4724 29.4732C5.40002 29.4287 5.43303 29.3573 5.56348 29.2764C5.73279 29.1712 5.7682 29.1764 5.7682 29.3059C5.7682 29.5759 5.98994 29.4765 6.11351 29.1511C6.18767 28.9559 6.30569 28.8398 6.42999 28.8398C6.57715 28.8398 6.61402 28.786 6.57319 28.6308C6.53621 28.4904 6.58687 28.3854 6.72746 28.3106C6.85937 28.2405 6.91818 28.1287 6.88653 28.0084C6.85645 27.8941 6.88402 27.8343 6.95505 27.8596C7.13386 27.9229 7.4517 27.1459 7.4729 26.5935C7.48575 26.2601 7.541 26.0931 7.64827 26.0642C7.78374 26.0277 7.78437 26.0362 7.65308 26.1269C7.52126 26.218 7.52085 26.2681 7.64984 26.5077L7.79847 26.7837L8.03943 26.4885C8.17198 26.3262 8.25909 26.108 8.23308 26.0036C8.20122 25.8757 8.23162 25.8313 8.32656 25.8674C8.51415 25.939 9.0061 25.4764 9.0061 25.2283C9.0061 25.004 9.33731 24.5848 9.51445 24.5848C9.57952 24.5848 9.63279 24.5381 9.63279 24.481C9.63279 24.424 9.69797 24.3773 9.77756 24.3773C9.98134 24.3773 10.2857 23.6944 10.2066 23.4146C10.1611 23.2536 10.171 23.2263 10.2393 23.3242C10.3559 23.4912 10.7192 23.3398 10.8184 23.0829C10.852 22.9957 10.9544 22.9243 11.0458 22.9243C11.1371 22.9243 11.1831 22.8782 11.148 22.8217C11.1115 22.763 11.1534 22.7455 11.2463 22.7809C11.3783 22.8314 11.4084 22.7541 11.4084 22.3647C11.4084 21.8493 11.2539 21.7435 10.9467 22.0489C10.8568 22.1381 10.736 22.182 10.6781 22.1465C10.4753 22.022 10.5762 21.9091 10.9526 21.8388C11.1615 21.7999 11.4673 21.6689 11.6323 21.5478C11.8645 21.3772 11.9602 21.3555 12.0567 21.4514C12.1252 21.5195 12.2306 21.5745 12.291 21.5737C12.3513 21.5727 12.3403 21.534 12.2666 21.4875C12.1268 21.3993 12.1988 21.0563 12.357 21.0563C12.4069 21.0563 12.4015 20.9356 12.3451 20.7882C12.2384 20.5093 12.2856 20.3299 12.4656 20.3299C12.5233 20.3299 12.5558 20.4212 12.5378 20.5328C12.5199 20.6443 12.5404 20.7377 12.5835 20.7403C12.8247 20.7548 12.8707 20.7307 12.8707 20.5893C12.8707 20.5037 12.8159 20.4336 12.7488 20.4336C12.6819 20.4336 12.6621 20.3987 12.7051 20.356C12.7482 20.3133 12.8455 20.3628 12.9215 20.4659C13.0187 20.5981 13.0818 20.6179 13.1348 20.5325C13.1909 20.4424 13.2315 20.4457 13.2936 20.5456C13.3517 20.639 13.4192 20.6479 13.5156 20.5751C13.5917 20.5175 13.7659 20.4646 13.9026 20.4574C14.0394 20.4504 14.2608 20.3422 14.3948 20.2171C14.5288 20.092 14.746 19.9366 14.8775 19.8718C15.0089 19.8069 15.1314 19.65 15.1498 19.523C15.168 19.396 15.2296 19.2921 15.2865 19.2921C15.3433 19.2921 15.3635 19.2497 15.3313 19.1979C15.299 19.1463 15.3668 19.1283 15.4818 19.1582C15.5967 19.1881 15.6908 19.1697 15.6908 19.1174C15.6908 18.9516 15.4621 18.7873 15.3113 18.8447C15.2115 18.8828 15.1863 18.8478 15.2308 18.7328C15.2663 18.6409 15.3424 18.5656 15.3998 18.5656C15.4573 18.5656 15.4772 18.4956 15.4441 18.4099C15.4037 18.305 15.4491 18.2543 15.5834 18.2543C15.6932 18.2543 15.81 18.2107 15.8431 18.1575C15.9197 18.0345 16.5581 18.0457 16.6408 18.1716C16.6749 18.2237 16.8277 18.2352 16.9802 18.1972C17.2087 18.1402 17.2575 18.0689 17.2575 17.7933C17.2575 17.3658 17.3639 17.26 17.5094 17.5428C17.6193 17.7568 17.8717 17.7897 17.7931 17.5797C17.7223 17.3905 17.6719 17.0585 17.7332 17.1847C17.7662 17.2528 17.8621 17.2824 17.9463 17.2503C18.0772 17.2004 18.0751 17.1744 17.9313 17.07C17.8196 16.9888 17.7749 16.8304 17.7976 16.5972C17.835 16.216 18.0931 16.0212 18.0931 16.3743C18.0931 16.5261 18.1406 16.5691 18.2589 16.5241C18.3988 16.4707 18.3839 16.4204 18.1626 16.2005C17.9193 15.9588 17.8882 15.9524 17.7286 16.111C17.6221 16.2168 17.5819 16.3611 17.6232 16.4902C17.6668 16.6266 17.6353 16.7194 17.5324 16.7586C17.446 16.7915 17.3997 16.8821 17.4298 16.9598C17.5332 17.2276 17.0358 17.0756 16.7659 16.7568C16.5257 16.4732 16.492 16.4619 16.3727 16.624C16.301 16.7216 16.1887 16.8014 16.1232 16.8014C16.0577 16.8014 16.0042 16.8685 16.0042 16.9505C16.0042 17.0645 16.0965 17.0853 16.3958 17.0388L16.7875 16.978L16.5264 17.1976C16.3115 17.3783 16.2977 17.4177 16.4481 17.4206C16.5711 17.4229 16.6308 17.5066 16.6308 17.6765C16.6308 17.8899 16.5823 17.9277 16.3175 17.9202C16.0037 17.9114 15.8939 17.7892 16.1294 17.7112C16.2078 17.6853 16.1882 17.6444 16.0772 17.602C15.9599 17.5573 15.8997 17.5859 15.8997 17.6867C15.8997 17.8865 15.6259 17.8839 15.5485 17.6835C15.5155 17.5979 15.4372 17.5278 15.3745 17.5278C15.312 17.5278 15.2946 17.5824 15.3362 17.6492C15.387 17.7309 15.3548 17.749 15.2379 17.7044C15.1172 17.6584 15.0641 17.6928 15.0641 17.8175C15.0641 18.021 14.6895 18.2931 14.5376 18.1998C14.4794 18.164 14.4374 18.3312 14.4374 18.5987C14.4374 18.8519 14.3688 19.2224 14.2849 19.4219C14.201 19.6214 14.1587 19.8108 14.1908 19.8426C14.2229 19.8746 14.1489 19.8747 14.0265 19.8428C13.8238 19.7901 13.8171 19.7648 13.9525 19.5596C14.1108 19.3195 14.2296 18.2541 14.098 18.2542C13.9826 18.2543 13.6018 18.6526 13.6018 18.7732C13.6018 18.8303 13.4608 18.877 13.2885 18.877C13.085 18.877 12.9751 18.9295 12.9751 19.0267C12.9751 19.1091 12.8341 19.2593 12.6618 19.3605C12.4591 19.4794 12.3485 19.6281 12.3485 19.7815C12.3485 19.923 12.2854 20.0185 12.1918 20.0185C12.0019 20.0185 11.9845 19.8513 12.1657 19.7687C12.2375 19.7359 12.1789 19.7388 12.0355 19.7752C11.6588 19.8705 11.3366 20.3277 11.6434 20.3314C11.7351 20.3326 11.7394 20.3557 11.6575 20.4093C11.5934 20.4512 11.5058 20.5977 11.4626 20.7347C11.3987 20.9382 11.4153 20.9722 11.5531 20.9196C11.6458 20.8843 11.7218 20.904 11.7218 20.9634C11.7218 21.0229 11.6396 21.0547 11.539 21.034C11.4384 21.0134 11.3627 20.9165 11.3707 20.8189C11.3812 20.6905 11.305 20.6412 11.0962 20.6412C10.685 20.6412 10.5075 20.8833 10.6658 21.2285C10.8296 21.5854 10.7734 21.6179 10.3184 21.429C9.91219 21.2603 9.94322 21.2433 9.79918 21.7144C9.77568 21.7909 9.80127 21.9193 9.856 21.9998C9.93726 22.1194 9.9852 22.1037 10.1202 21.9125C10.336 21.6066 10.4684 21.6164 10.4684 21.9384C10.4684 22.1932 10.3895 22.2402 10.0245 22.2033C9.77004 22.1777 9.79626 22.3865 10.0767 22.6188C10.3713 22.8631 10.441 22.8664 10.5009 22.6389C10.5434 22.4773 10.55 22.4764 10.5607 22.6316C10.5775 22.873 10.2917 23.1319 10.0083 23.1319C9.69243 23.1319 9.62151 23.0433 9.76033 22.8223C9.85516 22.6715 9.81537 22.5804 9.5367 22.3098C9.26837 22.0492 9.21197 22.0249 9.26566 22.193C9.32843 22.3897 9.24069 22.4587 8.97999 22.4177C8.93685 22.4109 8.91168 22.4404 8.9238 22.4833C8.93602 22.526 8.88578 22.6693 8.81214 22.8014C8.70446 22.9943 8.64889 23.0173 8.52877 22.9183C8.4097 22.8201 8.37941 22.8293 8.37941 22.9636C8.37941 23.0561 8.33241 23.1319 8.27496 23.1319C8.21752 23.1319 8.16978 23.2836 8.16895 23.4692C8.1677 23.7293 8.14336 23.7709 8.06252 23.6508C7.97123 23.5151 7.94407 23.5184 7.85007 23.6767C7.79085 23.7766 7.67522 23.8584 7.59323 23.8584C7.51124 23.8584 7.36595 23.977 7.27027 24.1221C7.13104 24.3332 7.11966 24.4366 7.21345 24.641C7.28918 24.8061 7.29304 24.8961 7.22453 24.8961C7.15517 24.8961 7.15319 24.9602 7.21878 25.0819C7.30746 25.2465 7.278 25.263 6.96132 25.2263C6.59595 25.1838 6.45589 25.0012 6.78657 24.9984C6.94251 24.997 6.94627 24.9822 6.81269 24.8979C6.72004 24.8394 6.64254 24.8377 6.62311 24.8937C6.60504 24.9457 6.52284 24.9626 6.44033 24.9311C6.35792 24.8997 6.29044 24.9256 6.29044 24.9888C6.29044 25.052 6.19341 25.2001 6.07476 25.318C5.91203 25.4797 5.87557 25.6071 5.92634 25.8369C5.96738 26.0227 5.95099 26.1415 5.88424 26.1415C5.82398 26.1415 5.80183 26.0714 5.83484 25.9858C5.86795 25.9002 5.84299 25.8302 5.77938 25.8302C5.71577 25.8302 5.66375 25.9469 5.66375 26.0896C5.66375 26.2511 5.60453 26.3491 5.50708 26.3491C5.42091 26.3491 5.35041 26.4079 5.35041 26.4798C5.35041 26.5517 5.22162 26.7486 5.06422 26.9172C4.90692 27.0859 4.79234 27.3072 4.80968 27.4092C4.83078 27.5328 4.77552 27.5944 4.6435 27.5944C4.44317 27.5944 4.16544 27.9895 4.14434 28.3046C4.11395 28.7572 4.08867 28.8398 3.98036 28.8398C3.91152 28.8398 3.88802 28.7441 3.92301 28.6063C3.97858 28.3869 3.97346 28.3844 3.83789 28.5644C3.75851 28.6699 3.71809 28.8197 3.74817 28.8974C3.78243 28.9863 3.70242 29.0636 3.53206 29.1062C3.25757 29.1745 3.21214 29.2873 3.25235 29.7997C3.26802 29.9989 3.22551 30.0851 3.11145 30.0851C3.02162 30.0851 2.94809 30.1552 2.94809 30.2408C2.94809 30.3264 2.89796 30.3964 2.83665 30.3964C2.77189 30.3964 2.7535 30.4854 2.79278 30.6084C2.84197 30.7622 2.78662 30.8782 2.59098 31.0311C2.32307 31.2405 2.22614 31.538 2.42585 31.538C2.62336 31.538 2.52999 31.7124 2.26918 31.8305C2.12556 31.8955 2.00806 32.0358 2.00806 32.1424C2.00806 32.2489 1.91426 32.4204 1.79958 32.5236C1.6404 32.6666 1.61867 32.7442 1.70787 32.851C1.79864 32.9597 1.78224 32.9909 1.63434 32.9909C1.48957 32.9909 1.47318 33.0199 1.56561 33.1117C1.65805 33.2036 1.63768 33.2752 1.48049 33.4106C1.26198 33.599 1.29927 33.9249 1.5394 33.9249C1.7414 33.9249 1.48435 34.42 1.2508 34.4807C0.999815 34.5458 0.999815 35.0626 1.2508 35.0771C1.35128 35.0829 1.28736 35.1345 1.10855 35.1918C0.811077 35.287 0.785591 35.3305 0.806899 35.7057C0.825073 36.0262 0.797185 36.103 0.679158 36.0579C0.55194 36.0093 0.538048 36.1388 0.591108 36.8825C0.626307 37.3774 0.612938 37.7648 0.560714 37.7648C0.405294 37.7648 0.318393 38.4158 0.46201 38.504C0.557371 38.5625 0.540764 38.636 0.396625 38.7943C0.23567 38.971 0.226165 39.0333 0.339387 39.1688C0.436524 39.285 0.496269 39.2972 0.549642 39.2116C0.603538 39.1249 0.643855 39.1235 0.695557 39.2066C0.76585 39.3197 0.633096 39.3654 0.348788 39.3259C0.258022 39.3134 0.227105 39.3656 0.26596 39.466C0.299906 39.5541 0.285805 39.6519 0.234521 39.6834C0.183237 39.7149 0.145218 39.8215 0.150127 39.9203C0.154931 40.019 0.129342 40.2712 0.0930979 40.4808C0.0507963 40.7254 0.0804595 40.9636 0.17603 41.1465C0.262827 41.3126 0.299175 41.5583 0.263453 41.736C0.222719 41.9383 0.251024 42.072 0.347848 42.134C0.470888 42.2127 0.471306 42.2416 0.350459 42.3189C0.232745 42.3944 0.237759 42.4275 0.379078 42.506C0.488853 42.5671 0.574605 42.8018 0.617011 43.1571C0.664222 43.5532 0.649808 43.6921 0.566876 43.6413C0.502849 43.6019 0.476946 43.5012 0.509325 43.4174C0.580559 43.2328 0.229194 43.206 0.0516317 43.3824C-0.0363139 43.4698 -0.014484 43.596 0.136966 43.8754C0.262722 44.1075 0.31808 44.3536 0.281836 44.5199C0.243817 44.694 0.279956 44.8356 0.384509 44.9217C0.473186 44.9949 0.545778 45.1689 0.545778 45.3084C0.545778 45.448 0.668818 45.7223 0.819328 45.9184C0.969734 46.1143 1.04024 46.2747 0.976001 46.2747C0.91166 46.2747 0.859123 46.3497 0.859123 46.4414C0.859123 46.5444 0.916988 46.5861 1.01047 46.5505C1.1168 46.5099 1.1426 46.5426 1.09716 46.6602C1.05413 46.7717 1.07335 46.8026 1.15471 46.7526C1.30501 46.6603 1.30543 46.6813 1.16234 47.0891C1.06322 47.3715 1.08306 47.4755 1.3094 47.8591C1.45323 48.1029 1.83373 48.5953 2.15502 48.953C2.77826 49.647 2.8285 49.7269 2.58252 49.6332C2.4904 49.598 2.42648 49.6314 2.42742 49.7142C2.42971 49.9145 2.55192 50.0665 2.77721 50.1493C2.91958 50.2016 2.95812 50.2926 2.92073 50.4872C2.88824 50.6559 2.92219 50.7736 3.01327 50.8084C3.09234 50.8384 3.15699 50.936 3.15699 51.025C3.15699 51.114 3.18446 51.1596 3.21788 51.1263C3.27596 51.0687 3.67923 51.4079 3.67923 51.5144C3.67923 51.6539 4.06204 51.9825 4.22466 51.9825C4.32681 51.9825 4.41037 52.0526 4.41037 52.1382C4.41037 52.3553 4.69792 52.3337 4.7562 52.1122C4.79411 51.968 4.80644 51.9761 4.81605 52.1515C4.82273 52.2729 4.75651 52.4313 4.66898 52.5035C4.48307 52.6568 4.53508 52.7353 4.85449 52.7838C5.12563 52.8249 5.29641 53.0752 5.29745 53.4331C5.29797 53.6061 5.36576 53.7036 5.50447 53.7307C5.6179 53.7529 5.76925 53.8472 5.84058 53.9405C5.91203 54.0337 5.97198 54.0566 5.97376 53.9914C5.97564 53.9261 6.04227 53.8479 6.12197 53.8175C6.2236 53.7787 6.25107 53.8219 6.2142 53.9621C6.17388 54.1153 6.21608 54.1619 6.39489 54.1619C6.58666 54.1619 6.61935 54.2075 6.57883 54.4182C6.55167 54.5591 6.57016 54.6495 6.61977 54.619C6.8131 54.5004 7.12603 54.698 7.12603 54.9388C7.12603 55.1065 7.24239 55.2542 7.49797 55.4112C7.74186 55.5609 7.84934 55.6928 7.81017 55.7944C7.76849 55.9023 7.79899 55.9307 7.91054 55.8881C8.00037 55.8539 8.16508 55.9207 8.28541 56.0403C8.40573 56.1598 8.57045 56.2267 8.66027 56.1924C8.77653 56.1481 8.80243 56.1781 8.7547 56.3015C8.69976 56.4438 8.74153 56.4613 9.00945 56.4081C9.18565 56.373 9.30712 56.3809 9.27934 56.4256C9.25156 56.4702 9.27192 56.5746 9.32478 56.6576C9.40437 56.7825 9.42097 56.7773 9.42233 56.6266C9.42484 56.3426 9.72816 56.4137 9.86509 56.7304C10.0319 57.1164 10.0499 57.133 10.1412 56.9861C10.2494 56.8123 10.6773 57.2784 10.6773 57.5699C10.6773 57.6676 11.1404 57.8979 11.3369 57.8979C11.4071 57.8979 11.5386 57.7767 11.629 57.6285L11.7935 57.3592L11.7837 57.8101C11.7746 58.2318 11.7934 58.2633 12.0723 58.2951C12.2635 58.3168 12.3459 58.2893 12.3019 58.2184C12.2598 58.1507 12.2959 58.1318 12.3952 58.1696C12.4844 58.2037 12.5574 58.2934 12.5574 58.3691C12.5574 58.4447 12.6514 58.5363 12.7662 58.5725C12.8811 58.6087 12.9751 58.6819 12.9751 58.7351C12.9751 58.7884 13.1242 58.8319 13.3064 58.8319C13.4885 58.8319 13.7264 58.9119 13.835 59.0094C13.9957 59.154 14.0485 59.161 14.1193 59.0473C14.2285 58.8716 14.7508 58.9836 14.7508 59.1827C14.7508 59.3254 15.356 59.3366 15.5817 59.1981C15.6417 59.1611 15.6908 59.2039 15.6908 59.2928C15.6908 59.485 15.8638 59.5097 15.9253 59.3263C15.9527 59.2448 16.0669 59.3036 16.2384 59.4875C16.387 59.6467 16.6417 59.7925 16.8046 59.8115C16.9676 59.8305 17.1009 59.8571 17.1009 59.8706C17.1009 59.8841 17.3241 59.9069 17.597 59.9211C17.8699 59.9354 18.0931 59.9147 18.0931 59.8749C18.0931 59.8353 18.3068 59.7994 18.568 59.7953C18.9904 59.7887 19.0222 59.8035 18.8553 59.9293C18.6863 60.0566 18.7073 60.0711 19.0662 60.074C19.2853 60.0758 19.5556 60.1256 19.6667 60.1847C19.8177 60.265 19.8692 60.2584 19.8703 60.1588C19.8716 60.0573 19.8937 60.0595 19.9632 60.1684C20.0133 60.2471 20.1042 60.2808 20.1652 60.2433C20.2262 60.2059 20.3271 60.27 20.3894 60.3857C20.5319 60.6501 20.7085 60.6525 20.9882 60.3936C21.2057 60.1924 21.2086 60.1926 21.4785 60.4411C21.7456 60.6871 21.869 60.7366 22.1532 60.7122C22.2633 60.7029 22.2688 60.6667 22.1767 60.5564C22.0837 60.445 22.0959 60.398 22.2312 60.3464C22.3269 60.3099 22.43 60.3045 22.4601 60.3342C22.4902 60.3641 22.4614 60.3886 22.3962 60.3886C22.331 60.3886 22.3028 60.4538 22.3336 60.5335C22.4022 60.7114 22.8971 60.8217 22.8993 60.6596C22.9003 60.5905 22.9356 60.5985 22.9873 60.6795C23.0347 60.7538 23.1163 60.8068 23.1685 60.7969C23.2206 60.7871 23.2986 60.7906 23.3417 60.8045C23.3847 60.8183 23.4553 60.8395 23.4983 60.8516C23.5414 60.8637 23.6668 60.9126 23.777 60.9602C23.9111 61.0183 24.0829 60.9868 24.2964 60.865C24.4867 60.7565 24.6299 60.726 24.6511 60.7894C24.6708 60.848 24.7543 60.8702 24.8368 60.8387C24.9192 60.8073 24.9867 60.8236 24.9867 60.8749C24.9867 60.9478 27.1717 60.9889 27.5196 60.9225C27.6777 60.8923 27.5919 60.712 27.389 60.6481C27.1057 60.5587 27.1239 60.3879 27.4151 60.4039C27.5445 60.4109 27.7442 60.3779 27.8591 60.3306C28.054 60.2503 28.0564 60.2562 27.8945 60.4185C27.799 60.5142 27.7447 60.6825 27.7736 60.7926C27.8189 60.9649 27.9263 60.9936 28.5477 60.9994C29.139 61.0049 29.2691 60.9764 29.2691 60.8417C29.2691 60.714 29.333 60.6937 29.5563 60.7505C29.7143 60.7907 30.1378 60.8455 30.4974 60.8722C31.0526 60.9135 31.1942 60.8874 31.435 60.6992C31.6002 60.57 31.7342 60.524 31.7559 60.5887C31.8125 60.7572 32.6038 60.7224 32.784 60.5434C32.8707 60.4572 32.9966 60.4209 33.0638 60.4626C33.2643 60.5872 33.4837 60.5914 33.6265 60.4736C33.7004 60.4126 33.89 60.3883 34.0478 60.4196C34.3449 60.4784 34.7004 60.2998 34.7004 60.0918C34.7004 60.0268 34.7764 59.9735 34.8693 59.9735C34.9867 59.9735 35.0215 60.0367 34.9835 60.1811C34.9135 60.4472 35.2749 60.4677 35.5574 60.2138C35.691 60.0936 35.9007 60.0466 36.2275 60.0633C36.4991 60.0773 36.7736 60.0299 36.8676 59.9529C36.9979 59.8461 37.0414 59.8449 37.0762 59.9476C37.1298 60.1058 37.586 60.12 37.6816 59.9665C37.7195 59.9054 37.8109 59.8786 37.8846 59.9067C37.9585 59.9348 38.112 59.893 38.226 59.8137C38.3399 59.7344 38.4604 59.6965 38.4936 59.7295C38.5268 59.7626 38.721 59.6871 38.9251 59.5618C39.1291 59.4365 39.2962 59.3759 39.2962 59.4273C39.2962 59.5456 40.0831 59.4878 40.3414 59.3504C40.4483 59.2935 40.6447 59.2467 40.7777 59.2464C40.9107 59.246 41.1518 59.1772 41.3135 59.0935C41.4752 59.0096 41.8412 58.9103 42.1268 58.8726C42.4818 58.8258 42.6946 58.7355 42.799 58.5874C42.8897 58.4589 42.9519 58.4278 42.9519 58.5111C42.9519 58.6785 43.6751 58.5975 43.787 58.4176C43.8247 58.3568 44.0166 58.2878 44.2133 58.2642C44.8663 58.1857 45.1961 58.0832 45.3285 57.9174C45.4301 57.7901 45.4873 57.7812 45.5844 57.8776C45.7789 58.0708 46.0989 58.0243 46.1595 57.7941C46.1938 57.6638 46.3019 57.5866 46.4504 57.5866C46.5802 57.5866 46.845 57.5226 47.0387 57.4444C47.2325 57.3662 47.4526 57.3243 47.5281 57.3514C47.6036 57.3785 47.7358 57.3141 47.8219 57.2082C47.9343 57.0702 47.9939 57.0525 48.0329 57.1455C48.1099 57.3294 48.1862 57.3095 48.53 57.0157C48.6969 56.873 48.9201 56.7564 49.0262 56.7564C49.1321 56.7564 49.2188 56.6863 49.2188 56.6007C49.2188 56.4852 49.3411 56.445 49.6932 56.445C50.1111 56.445 51.0025 56.1287 51.7502 55.7151C51.8499 55.6599 51.9954 55.6148 52.0734 55.6148C52.1516 55.6148 52.302 55.5197 52.4078 55.4036C52.5136 55.2874 52.6619 55.2159 52.7373 55.2446C52.8127 55.2733 52.8745 55.2335 52.8745 55.1561C52.8745 55.0769 53.0369 54.985 53.2456 54.946C53.4496 54.9081 53.6415 54.8124 53.6719 54.7335C53.7024 54.6546 53.7939 54.6155 53.8754 54.6465C53.9568 54.6776 54.0234 54.6513 54.0234 54.5881C54.0234 54.5249 54.1057 54.4695 54.2062 54.465C54.3153 54.4601 54.3364 54.4358 54.2584 54.4045C54.1866 54.3757 54.1278 54.286 54.1278 54.2052C54.1278 54.0219 54.6146 54.0066 54.6784 54.1878C54.7118 54.2829 54.7791 54.2691 54.9303 54.1359C55.0437 54.0361 55.2123 53.9543 55.305 53.9543C55.3975 53.9543 55.5024 53.9076 55.5379 53.8505C55.5734 53.7935 55.7223 53.7468 55.8686 53.7468C56.0622 53.7468 56.1183 53.7043 56.0746 53.5911C56.0298 53.4752 56.0904 53.4354 56.3118 53.4354C56.4752 53.4354 56.6675 53.3654 56.7391 53.2798C56.8106 53.1941 56.9628 53.1241 57.0774 53.1241C57.228 53.1241 57.2717 53.0714 57.2356 52.9338C57.1945 52.7777 57.3169 52.6984 57.9164 52.4927C58.4373 52.3141 58.7771 52.1151 59.0983 51.8009C59.3464 51.5584 59.6163 51.3598 59.6981 51.3598C59.78 51.3598 59.9054 51.2898 59.977 51.2042C60.0485 51.1186 60.1621 51.0485 60.2296 51.0485C60.2971 51.0485 60.4677 50.9104 60.6086 50.7415C60.7495 50.5728 60.9656 50.4327 61.0887 50.4302C61.212 50.4278 61.4637 50.2857 61.6481 50.1145C61.8326 49.9433 62.0052 49.8032 62.0317 49.8032C62.169 49.8032 62.7971 49.2395 62.7971 49.1162C62.7971 49.0375 62.8653 48.9729 62.9485 48.9729C63.0319 48.9729 63.1376 48.9096 63.1835 48.8322C63.2295 48.7548 63.4551 48.6041 63.6849 48.4972C64.1299 48.2902 64.618 47.7913 64.6356 47.5253C64.6414 47.4368 64.6532 47.2571 64.6617 47.1262C64.6755 46.9136 64.7152 46.895 65.0289 46.9535C65.335 47.0106 65.4267 46.9725 65.7339 46.6605C65.9282 46.4633 66.193 46.2694 66.3222 46.2294C66.4514 46.1896 66.5572 46.0978 66.5572 46.0256C66.5572 45.9534 66.7419 45.7468 66.9677 45.5666C67.1934 45.3863 67.408 45.145 67.4447 45.0302C67.4814 44.9156 67.5692 44.8217 67.6399 44.8217C67.7107 44.8217 67.8281 44.6583 67.9008 44.4585C67.9735 44.2587 68.0748 44.0953 68.1259 44.0953C68.2284 44.0953 68.7366 43.6162 68.7616 43.4962C68.8084 43.2707 68.8948 43.1627 69.0736 43.1064C69.1833 43.0718 69.2729 42.9743 69.2729 42.8897C69.2729 42.7058 69.9212 42.0197 70.0949 42.0197C70.1725 42.0197 70.1933 41.9264 70.1521 41.7634C70.0804 41.4793 70.2595 41.2358 70.5859 41.1734C70.7378 41.1443 70.79 41.0429 70.7981 40.7618C70.8117 40.2927 70.9312 40.0685 71.06 40.2703C71.1256 40.3732 71.1502 40.3481 71.1514 40.1776C71.1522 40.0492 71.1999 39.9441 71.2574 39.9441C71.3148 39.9441 71.3618 39.8845 71.3618 39.8115C71.3618 39.7385 71.4549 39.5998 71.5685 39.5031C71.6823 39.4063 71.7522 39.2672 71.7238 39.1939C71.6955 39.1205 71.7787 39.0142 71.9087 38.9575C72.1012 38.8736 72.1514 38.7579 72.1781 38.3363C72.1962 38.0513 72.284 37.738 72.3732 37.64C72.4775 37.5256 72.5121 37.369 72.47 37.2023C72.4213 37.0095 72.4559 36.9154 72.6049 36.8363C72.744 36.7623 72.7871 36.6609 72.746 36.5046C72.7054 36.35 72.7247 36.3027 72.8076 36.3537C72.8795 36.3978 72.9286 36.3622 72.9286 36.2661C72.9286 36.1772 72.9741 36.1043 73.0298 36.1043C73.0853 36.1043 73.1053 36.0379 73.0739 35.9566C73.0425 35.8755 73.1145 35.712 73.2339 35.5934C73.3733 35.4548 73.4508 35.2441 73.4508 35.0035C73.4508 34.7003 73.4831 34.6415 73.621 34.694C73.7631 34.7482 73.7803 34.7058 73.726 34.4358C73.6718 34.1665 73.6972 34.1033 73.8786 34.0562C74.0537 34.0107 74.0831 33.9466 74.029 33.7288C73.9921 33.5798 73.9617 33.3737 73.9614 33.2707C73.9611 33.1678 73.8932 33.0578 73.8103 33.0261C73.6111 32.9502 73.6171 32.7834 73.819 32.7834C74.0478 32.7834 74.2095 32.3056 74.0608 32.0689C73.966 31.9181 73.991 31.794 74.1858 31.4497C74.3197 31.2129 74.4625 31.0191 74.5031 31.0191C74.5437 31.0191 74.5957 30.859 74.6188 30.6632C74.6428 30.4584 74.619 30.3327 74.5628 30.3673C74.5047 30.4029 74.4943 30.3051 74.5371 30.1265C74.5767 29.961 74.6188 29.5866 74.6306 29.2943C74.6471 28.8847 74.6858 28.7758 74.7997 28.819C74.8996 28.8569 74.9206 28.8321 74.8646 28.742C74.8185 28.6679 74.8329 28.5776 74.8972 28.5382C74.9804 28.4871 74.9816 28.3557 74.9017 28.0684C74.8176 27.7657 74.8219 27.6504 74.9195 27.5906C75.0985 27.4806 74.9503 27.1429 74.7556 27.2172C74.5821 27.2833 74.5401 27.1244 74.7045 27.0234C74.772 26.982 74.774 26.8937 74.7099 26.7749C74.6147 26.598 74.6421 25.961 74.7496 25.8542C74.778 25.826 74.7554 25.7176 74.6992 25.6134C74.6195 25.4653 74.6442 25.3986 74.8123 25.3093C74.9708 25.225 75.0089 25.1362 74.9565 24.9723C74.9174 24.85 74.8738 24.631 74.8595 24.4857C74.8452 24.3404 74.8059 24.1515 74.7722 24.0659C74.7383 23.9803 74.7167 23.8402 74.7239 23.7546C74.7514 23.4301 74.7006 23.2256 74.6069 23.2831C74.5535 23.316 74.4822 23.2986 74.4486 23.2445C74.415 23.1904 74.4352 23.117 74.4936 23.081C74.6632 22.9769 74.6161 22.7921 74.4373 22.8603C74.2952 22.9145 74.2837 22.8183 74.3453 22.0931C74.397 21.4833 74.3829 21.2639 74.2918 21.2639C74.2164 21.2639 74.1932 21.1845 74.2326 21.0612C74.2682 20.9496 74.2281 20.6268 74.1435 20.3438C74.0589 20.0607 74.0173 19.8016 74.051 19.7681C74.0847 19.7346 74.0524 19.7072 73.9793 19.7072C73.9053 19.7072 73.8724 19.6396 73.9051 19.5548C73.977 19.3687 73.8038 19.238 73.7279 19.4212C73.6981 19.4929 73.7 19.3997 73.7321 19.2142C73.7765 18.9568 73.7529 18.877 73.6321 18.877C73.5331 18.877 73.4476 18.7364 73.4031 18.501C73.3138 18.0282 73.1334 17.7358 72.9295 17.7338C72.8003 17.7325 72.7977 17.716 72.9147 17.6423C73.0311 17.569 73.0173 17.4974 72.84 17.2547C72.7203 17.091 72.573 16.7324 72.5126 16.4578C72.4521 16.1832 72.3094 15.8592 72.1955 15.7376C72.0817 15.6162 71.9885 15.4338 71.9885 15.3322C71.9885 15.2105 71.9349 15.1679 71.8319 15.2071C71.7135 15.2523 71.6752 15.1887 71.6752 14.9477C71.6752 14.692 71.6405 14.6417 71.5003 14.6952C71.3679 14.7457 71.3418 14.7198 71.3927 14.5882C71.4295 14.4926 71.4142 14.4144 71.3586 14.4144C71.3029 14.4144 71.2574 14.3444 71.2574 14.2588C71.2574 14.1732 71.3029 14.1031 71.3586 14.1031C71.4142 14.1031 71.4327 14.0331 71.3997 13.9474C71.3665 13.8618 71.274 13.7918 71.194 13.7918C71.114 13.7918 71.0485 13.7217 71.0485 13.6361C71.0485 13.5505 70.978 13.4804 70.8918 13.4804C70.8057 13.4804 70.7351 13.4104 70.7351 13.3248C70.7351 13.2392 70.6528 13.0861 70.5524 12.9846C70.2775 12.7071 69.7951 11.9469 69.7951 11.791C69.7951 11.5955 69.5769 11.4049 69.3532 11.4049C69.2479 11.4049 69.1348 11.3348 69.1018 11.2492C69.0687 11.1636 68.9864 11.0935 68.9189 11.0935C68.8514 11.0935 68.7338 10.8834 68.6575 10.6265C68.5684 10.3267 68.4573 10.1567 68.3475 10.1515C68.0841 10.1394 67.7971 10.077 67.7391 10.0193C67.7104 9.99076 67.6255 9.78994 67.5504 9.57305C67.4452 9.26908 67.358 9.17806 67.1698 9.17609C66.9812 9.17422 66.9133 9.10282 66.871 8.86226C66.8293 8.62502 66.7544 8.54428 66.5562 8.52322C65.1862 8.37709 65.1995 8.38031 65.351 8.22973C65.4318 8.14951 65.5467 8.08392 65.6064 8.08392C65.6662 8.08392 65.688 8.01387 65.655 7.92825C65.6157 7.82675 65.4533 7.77258 65.1882 7.77258C64.8468 7.77258 64.7816 7.73813 64.7816 7.55807C64.7816 7.39067 64.7356 7.35798 64.5727 7.40935C64.4334 7.45325 64.3638 7.42803 64.3638 7.33339C64.3638 7.19868 63.6758 6.87406 63.4951 6.92356C63.4482 6.93643 63.4184 6.8642 63.4289 6.76302C63.4393 6.66183 63.4423 6.52578 63.4358 6.4606C63.4232 6.33732 62.9459 6.16618 62.7187 6.20354C62.647 6.21537 62.5874 6.14117 62.5866 6.03885C62.5852 5.88038 62.5697 5.87581 62.4822 6.00833C62.3907 6.14667 62.3675 6.14667 62.2728 6.00833C62.1806 5.87342 62.1457 5.87955 62.0117 6.0541C61.8278 6.29373 61.8047 6.19254 61.9799 5.914C62.0781 5.7574 62.0693 5.68548 61.9351 5.55212C61.8429 5.46059 61.7222 5.38566 61.6667 5.38566C61.6114 5.38566 61.539 5.31561 61.5059 5.22999C61.4729 5.14437 61.3358 5.07432 61.2014 5.07432C61.0669 5.07432 60.8657 5.00572 60.7542 4.92197C60.6427 4.83812 60.4327 4.76807 60.2874 4.76631C60.1422 4.76444 59.9406 4.66699 59.8395 4.54961C59.6987 4.38616 59.5744 4.34911 59.3078 4.39125C59.0447 4.43276 58.9136 4.39529 58.7697 4.23745C58.6235 4.0768 58.5063 4.04463 58.2619 4.09797C57.9769 4.16024 57.9588 4.14996 58.0856 3.99813C58.2097 3.84962 58.1958 3.82897 57.9727 3.82897C57.8328 3.82897 57.6233 3.74086 57.5071 3.63324C57.3444 3.48276 57.1584 3.44219 56.7006 3.45744C56.2658 3.47197 56.1188 3.44291 56.155 3.34941C56.1821 3.27905 56.1484 3.17589 56.0801 3.12026C55.9076 2.97995 55.0565 2.75019 54.8246 2.78132C54.7195 2.79544 54.4696 2.72974 54.2694 2.6353C54.069 2.54087 53.779 2.44207 53.6248 2.41581C53.1632 2.33694 52.931 2.25091 52.8503 2.12855C52.7966 2.04708 52.6764 2.06763 52.4445 2.19767C52.2633 2.29937 52.0901 2.35769 52.0596 2.32739C52.0291 2.29709 52.0589 2.27228 52.1259 2.27228C52.1929 2.27228 52.2478 2.22558 52.2478 2.16851C52.2478 2.11143 52.1288 2.06473 51.9833 2.06473C51.8378 2.06473 51.5448 1.9925 51.3322 1.90418C51.1195 1.81586 50.8273 1.72661 50.6827 1.70565C50.5382 1.68479 50.1481 1.61422 49.8159 1.54894C49.4836 1.48367 49.1135 1.46125 48.9934 1.49913C48.87 1.53805 48.7432 1.51708 48.7021 1.45098C48.6621 1.38663 48.3903 1.317 48.0981 1.29635C47.806 1.27559 47.5053 1.22069 47.4298 1.1744C47.3543 1.12802 47.1604 1.1001 46.9989 1.11224C46.8374 1.12449 46.6125 1.08505 46.4988 1.02465C46.3852 0.964251 45.9049 0.897418 45.4316 0.876247C44.9581 0.854972 44.4365 0.786063 44.2724 0.723069C44.0216 0.626762 41.5739 0.478773 40.6348 0.503057C40.4805 0.507001 40.3265 0.465489 40.2925 0.410797C40.2584 0.356106 39.9518 0.312622 39.6111 0.314283C39.2704 0.315943 38.8933 0.286263 38.7733 0.248383C38.6532 0.210504 38.4877 0.234995 38.4055 0.302763C38.2922 0.396268 38.1738 0.397618 37.9155 0.30816C37.6879 0.229288 37.5632 0.225344 37.5393 0.296433C37.5164 0.364719 37.4388 0.36804 37.3219 0.305876C37.2219 0.252742 36.6734 0.203551 36.1031 0.196494C34.682 0.179162 34.7218 0.17387 34.7381 0.378315C34.7556 0.59677 34.3975 0.573938 34.2189 0.345209C34.1396 0.243713 33.8901 0.196701 33.4303 0.196701C33.0464 0.196701 32.7039 0.143255 32.6323 0.0721659C32.5357 -0.0238299 32.507 -0.0240374 32.507 0.0714394C32.507 0.147821 32.357 0.189748 32.1153 0.180926C31.9 0.173143 31.5769 0.199192 31.3975 0.238939C31.1501 0.293735 31.0559 0.271629 31.0081 0.147821C30.9563 0.0134269 30.9089 0.00678494 30.7419 0.11046C30.5895 0.205003 30.4463 0.208324 30.1688 0.123641C29.8754 0.0341829 29.7739 0.0406173 29.6788 0.154567ZM35.9538 1.39016C35.9538 1.47578 35.8776 1.54583 35.7844 1.54583C35.6456 1.54583 35.6384 1.51771 35.7449 1.39016C35.8165 1.30454 35.8927 1.23449 35.9143 1.23449C35.9361 1.23449 35.9538 1.30454 35.9538 1.39016ZM20.2534 2.18802C20.2201 2.27073 20.1954 2.24613 20.1903 2.12523C20.1858 2.01585 20.2105 1.95462 20.2452 1.98907C20.2799 2.02353 20.2836 2.11309 20.2534 2.18802ZM16.7184 2.1932C16.7896 2.26398 16.9241 2.32231 17.0175 2.32293C17.2726 2.3248 17.3 2.55622 17.0544 2.63375C16.7601 2.72653 16.7853 2.85283 17.1324 3.02479C17.3751 3.14517 17.4471 3.14642 17.5543 3.03247C17.6314 2.95048 17.6397 2.89496 17.575 2.89496C17.5153 2.89496 17.4664 2.84286 17.4664 2.77904C17.4664 2.71532 17.5564 2.68657 17.6663 2.71511C17.8008 2.75008 17.8828 2.70432 17.9167 2.57542C17.9754 2.35199 17.7333 2.09513 17.6262 2.2672C17.5891 2.32708 17.6111 2.37606 17.6753 2.37606C17.7396 2.37606 17.7631 2.42276 17.7276 2.47984C17.6086 2.671 17.4664 2.58622 17.4664 2.32417C17.4664 2.0886 17.426 2.06473 17.0277 2.06473C16.679 2.06473 16.6156 2.09109 16.7184 2.1932ZM19.6598 2.42795C19.6598 2.60894 19.6046 2.68491 19.4771 2.6792C19.3679 2.67432 19.3468 2.64994 19.4248 2.6187C19.4967 2.58985 19.5554 2.47683 19.5554 2.36745C19.5554 2.25796 19.5789 2.16851 19.6076 2.16851C19.6363 2.16851 19.6598 2.28526 19.6598 2.42795ZM61.857 5.79465C61.857 5.84841 61.81 5.92116 61.7526 5.95645C61.6951 5.99173 61.6481 5.94773 61.6481 5.85879C61.6481 5.76985 61.6951 5.697 61.7526 5.697C61.81 5.697 61.857 5.7409 61.857 5.79465ZM64.6771 7.67493C64.6771 7.7924 64.6322 7.861 64.5773 7.82727C64.5223 7.79354 64.5039 7.69734 64.5362 7.61359C64.6191 7.39908 64.6771 7.4243 64.6771 7.67493ZM67.1508 9.55634C67.1175 9.63905 67.0927 9.61445 67.0877 9.49355C67.0832 9.38417 67.1079 9.32294 67.1425 9.35739C67.1772 9.39185 67.181 9.48141 67.1508 9.55634ZM30.1125 11.5346C30.1489 11.8128 30.1 12.0275 30.0002 12.0275C29.9428 12.0275 29.8958 11.9625 29.8958 11.883C29.8958 11.8035 29.8292 11.713 29.7478 11.6819C29.5688 11.6137 29.4371 11.8891 29.6144 11.9607C29.7071 11.9982 29.7056 12.0132 29.6086 12.0193C29.5368 12.0238 29.478 12.0976 29.478 12.1832C29.478 12.2688 29.431 12.3389 29.3736 12.3389C29.3161 12.3389 29.2691 12.2688 29.2691 12.1832C29.2691 12.0976 29.2001 12.0275 29.1157 12.0275C29.0272 12.0275 28.9861 11.9661 29.0184 11.8823C29.1019 11.6662 28.8914 11.5874 28.7105 11.7671C28.6238 11.8533 28.4556 11.9237 28.3365 11.9237C28.1822 11.9237 28.1198 11.9908 28.1186 12.1573C28.1174 12.3417 28.0966 12.3587 28.0198 12.2381C27.8885 12.0319 27.7592 12.1785 27.8663 12.4122C27.9132 12.5146 27.9555 12.645 27.9603 12.7021C27.9651 12.7592 28.0078 12.8673 28.0551 12.9425C28.2223 13.2081 28.0151 13.1968 27.742 12.9254C27.4556 12.6409 27.1801 12.563 27.1801 12.7666C27.1801 12.8472 27.1317 12.8432 27.0235 12.754C26.7899 12.5614 26.8337 12.3696 27.1279 12.2962C27.406 12.2269 27.4895 12.0275 27.2405 12.0275C27.1588 12.0275 26.931 12.2143 26.7343 12.4426C26.5377 12.671 26.3263 12.8578 26.2645 12.8578C26.2027 12.8578 26.1212 12.9979 26.0834 13.1691C26.0261 13.4283 25.9636 13.4804 25.7096 13.4804C25.5418 13.4804 25.4045 13.529 25.4045 13.5883C25.4045 13.6505 25.3431 13.6395 25.2594 13.5623C25.0942 13.4101 25.2441 13.258 25.4733 13.3455C25.5504 13.3748 25.6134 13.3472 25.6134 13.284C25.6134 13.2208 25.5614 13.1691 25.4978 13.1691C25.433 13.1691 25.4102 13.0892 25.4458 12.9875C25.4969 12.8415 25.4778 12.8466 25.3484 13.0129C25.2102 13.1906 25.1734 13.1979 25.0887 13.0648C25.0011 12.9272 24.9883 12.9273 24.976 13.0653C24.9682 13.1509 24.9652 13.2491 24.9692 13.2835C24.9731 13.3179 24.9882 13.5431 25.0025 13.7841L25.0285 14.2222L25.3991 14.1531C25.6029 14.1151 25.7932 14.0475 25.8221 14.0029C25.8509 13.9581 26.0189 13.8906 26.1953 13.8526C26.481 13.7909 26.5128 13.747 26.4869 13.4503C26.4708 13.2671 26.483 13.2008 26.5141 13.303C26.5636 13.4663 26.6093 13.4508 26.8951 13.1732C27.2552 12.8234 27.389 12.7801 27.389 13.0134C27.389 13.099 27.441 13.1691 27.5047 13.1691C27.5683 13.1691 27.5946 13.2356 27.5633 13.3169C27.5139 13.4446 27.5542 13.4446 27.8621 13.3169C28.3101 13.1308 28.3658 13.1318 28.2913 13.3248C28.2583 13.4104 28.2767 13.4804 28.3323 13.4804C28.388 13.4804 28.4335 13.4104 28.4335 13.3248C28.4335 13.2052 28.567 13.1691 29.008 13.1691C29.3239 13.1691 29.5825 13.1224 29.5825 13.0653C29.5825 13.0082 29.7235 12.9615 29.8958 12.9615C30.1047 12.9615 30.2091 12.9097 30.2091 12.8059C30.2091 12.626 30.3734 12.5983 30.4747 12.761C30.5126 12.8221 30.608 12.8474 30.6867 12.8174C30.7654 12.7874 30.9016 12.8342 30.9895 12.9215C31.1289 13.06 31.1492 13.0605 31.1492 12.9257C31.1492 12.7155 31.3779 12.6551 31.545 12.8211C31.6202 12.8958 31.7768 13.0231 31.8931 13.104C32.0093 13.185 32.1156 13.3144 32.1293 13.3917C32.1943 13.759 32.3258 13.9993 32.4618 13.9993C32.5441 13.9993 32.6115 14.058 32.6115 14.1297C32.6115 14.2014 32.7512 14.3215 32.9221 14.3966C33.1921 14.5153 33.2739 14.509 33.5488 14.3477C33.9041 14.1391 33.9279 14.0768 33.7184 13.904C33.6379 13.8376 33.5414 13.6621 33.504 13.5139C33.4148 13.161 32.9395 12.5464 32.7557 12.5464C32.6764 12.5464 32.6115 12.4815 32.6115 12.402C32.6115 12.3226 32.4993 12.2296 32.3622 12.1954C32.2252 12.1613 32.002 12.0169 31.8661 11.8747C31.7303 11.7324 31.5252 11.6188 31.4103 11.6224C31.2954 11.6259 31.2602 11.6524 31.332 11.6811C31.5258 11.7588 31.4902 11.8924 31.2595 11.9523C31.1017 11.9933 31.0416 11.9381 30.99 11.705C30.9305 11.4356 30.8814 11.4049 30.5096 11.4049C30.2389 11.4049 30.1015 11.4498 30.1125 11.5346ZM30.7836 12.1313C30.8191 12.1884 30.8012 12.2351 30.7437 12.2351C30.6863 12.2351 30.6102 12.1884 30.5747 12.1313C30.5392 12.0742 30.5572 12.0275 30.6146 12.0275C30.6721 12.0275 30.7481 12.0742 30.7836 12.1313ZM23.8126 13.3187C23.6552 13.4004 23.3732 13.4842 23.1859 13.505L22.8455 13.5428L23.2111 13.7243C23.5465 13.8909 23.5521 13.9007 23.2794 13.8443C23.1103 13.8093 22.9171 13.8365 22.8311 13.9075C22.7166 14.0018 22.6506 14.0029 22.5591 13.912C22.389 13.7429 22.2664 13.7625 22.3377 13.9474C22.3708 14.0331 22.4684 14.1031 22.5545 14.1031C22.6508 14.1031 22.688 14.1631 22.651 14.2588C22.6132 14.3567 22.6522 14.4144 22.7562 14.4144C22.8804 14.4144 22.9101 14.4918 22.8755 14.7258C22.823 15.0814 22.87 15.1145 23.0604 14.8558C23.154 14.7286 23.1614 14.6357 23.0852 14.5445C23.0027 14.4457 23.0451 14.4144 23.2618 14.4144C23.4563 14.4144 23.5299 14.4583 23.4933 14.5528C23.4301 14.7165 23.7247 14.7452 23.9174 14.5941C24.019 14.5144 24.0211 14.4569 23.9264 14.3436C23.8303 14.2286 23.8413 14.1588 23.9773 14.0238C24.0878 13.9139 24.1511 13.897 24.1511 13.9771C24.1511 14.0464 24.2437 14.1031 24.3568 14.1031C24.4966 14.1031 24.5431 14.0533 24.5023 13.9474C24.4688 13.8606 24.3134 13.7918 24.1511 13.7918C23.9888 13.7918 23.8335 13.723 23.8 13.6361C23.7644 13.5439 23.7989 13.4804 23.8846 13.4804C23.9642 13.4804 24.0529 13.5389 24.082 13.6102C24.1109 13.6816 24.1384 13.6114 24.1429 13.4545C24.1525 13.1209 24.1758 13.1305 23.8126 13.3187ZM24.36 13.4804C24.2659 13.5408 24.253 13.5816 24.3278 13.5827C24.3962 13.5835 24.4812 13.5375 24.5167 13.4804C24.5968 13.3515 24.5607 13.3515 24.36 13.4804ZM21.6726 13.9633C21.4591 14.0511 21.3108 14.1992 21.2684 14.3668C21.1868 14.6901 21.3083 14.8442 21.4485 14.5952C21.5045 14.4958 21.6538 14.4137 21.7802 14.4129C22.0903 14.4107 22.3602 14.2319 22.2084 14.1291C22.1452 14.0863 22.0747 14.0003 22.0517 13.9379C22.0226 13.8589 21.9078 13.8666 21.6726 13.9633ZM21.6444 14.9383C21.6444 15.0048 21.5739 15.0325 21.4877 14.9996C21.4015 14.9668 21.331 14.9866 21.331 15.0437C21.331 15.1007 21.3986 15.1732 21.4811 15.2046C21.5651 15.2367 21.6042 15.332 21.5697 15.421C21.5186 15.5533 21.545 15.5606 21.7262 15.4643C21.846 15.4006 22.0321 15.3485 22.1398 15.3485C22.2475 15.3485 22.4268 15.2797 22.5383 15.1956C22.7243 15.0553 22.6997 15.0462 22.2428 15.0854C21.9687 15.1088 21.7697 15.0875 21.8005 15.0379C21.8314 14.9882 21.8089 14.9184 21.7505 14.8825C21.6921 14.8467 21.6444 14.8718 21.6444 14.9383ZM19.1636 15.374C19.1874 15.4451 19.2736 15.508 19.3551 15.5138C19.8239 15.5473 19.8594 15.5632 19.8016 15.7128C19.7566 15.8295 19.7886 15.8516 19.9265 15.799C20.0481 15.7526 20.0875 15.7676 20.0409 15.8426C20.0018 15.9053 20.0235 15.9898 20.0891 16.0301C20.1625 16.0751 20.0823 16.1561 19.8819 16.2398C19.7024 16.3149 19.5554 16.4252 19.5554 16.4851C19.5554 16.6379 19.7227 16.6203 19.8948 16.4494C19.9748 16.3699 20.1256 16.2882 20.2299 16.2677C20.3343 16.2473 20.4603 16.1212 20.51 15.9874C20.583 15.7911 20.5614 15.7342 20.3984 15.6918C20.2874 15.6629 20.2195 15.58 20.2475 15.5076C20.3057 15.3568 19.9822 15.2482 19.4684 15.2461C19.2364 15.2452 19.1347 15.2879 19.1636 15.374ZM20.9833 15.4597C20.7559 15.7234 20.8022 15.8153 21.0658 15.6237C21.1701 15.548 21.2367 15.4307 21.214 15.3629C21.1879 15.2851 21.1031 15.3205 20.9833 15.4597ZM18.511 15.5559C18.3976 15.6257 18.3971 15.6981 18.5083 15.9649C18.5827 16.1432 18.6681 16.2647 18.6982 16.2348C18.7282 16.205 18.8153 16.232 18.8916 16.295C18.968 16.3579 19.1051 16.3811 19.1963 16.3463C19.3471 16.2888 19.3472 16.2684 19.1976 16.1196C19.1071 16.0299 19.0332 15.9009 19.0332 15.833C19.0332 15.6501 18.6708 15.4578 18.511 15.5559ZM17.1539 16.4873C17.0362 16.5613 17.0276 16.6145 17.1187 16.705C17.2617 16.847 17.4664 16.7474 17.4664 16.5358C17.4664 16.3631 17.3744 16.3489 17.1539 16.4873ZM18.457 16.8088C18.3772 17.1698 18.4876 17.3792 18.5776 17.0376C18.6134 16.9015 18.6925 16.8373 18.7824 16.8715C18.9616 16.9399 18.9742 16.7844 18.8034 16.6146C18.6089 16.4213 18.5334 16.4637 18.457 16.8088ZM14.9524 19.1623C14.9563 19.3478 14.9127 19.4996 14.8552 19.4996C14.7978 19.4996 14.7508 19.4529 14.7508 19.3959C14.7508 19.3388 14.6713 19.2921 14.5741 19.2921C14.4194 19.2921 14.4226 19.2719 14.6003 19.1299C14.7441 19.0149 14.7651 18.952 14.6724 18.9137C14.6007 18.884 14.5419 18.7974 14.5419 18.7213C14.5419 18.5151 14.7922 18.4684 14.874 18.6593C14.9131 18.7504 14.9483 18.9769 14.9524 19.1623ZM13.7585 19.2114C13.8181 19.2556 13.7845 19.2896 13.6802 19.2905C13.5785 19.2913 13.4974 19.2153 13.4974 19.1191C13.4974 19.024 13.5327 18.9884 13.5757 19.0401C13.6188 19.0917 13.7011 19.1689 13.7585 19.2114ZM12.244 20.8549C12.244 20.9086 12.197 20.9525 12.1396 20.9525C12.0821 20.9525 12.0351 20.8797 12.0351 20.7907C12.0351 20.7018 12.0821 20.6578 12.1396 20.6931C12.197 20.7284 12.244 20.8011 12.244 20.8549ZM12.9325 21.0044C12.7857 21.2271 12.7835 21.2639 12.9169 21.2639C13.0524 21.2639 13.2885 20.9715 13.2885 20.8037C13.2885 20.656 13.0875 20.7694 12.9325 21.0044ZM11.5651 21.7828C11.5296 21.8398 11.5739 21.8866 11.6634 21.8866C11.7529 21.8866 11.8262 21.8398 11.8262 21.7828C11.8262 21.7257 11.782 21.679 11.7279 21.679C11.6738 21.679 11.6006 21.7257 11.5651 21.7828ZM11.9307 22.0422C11.7957 22.1849 11.7102 22.3017 11.7406 22.3017C11.7709 22.3017 11.9225 22.1849 12.0774 22.0422C12.2324 21.8995 12.318 21.7828 12.2676 21.7828C12.2172 21.7828 12.0656 21.8995 11.9307 22.0422ZM72.3586 23.8512C72.3255 23.9043 72.3463 23.9771 72.4047 24.013C72.463 24.0488 72.5108 24.0053 72.5108 23.9164C72.5108 23.734 72.4481 23.7073 72.3586 23.8512ZM7.20217 25.4777C7.1675 25.5122 7.07736 25.5159 7.00205 25.4859C6.9187 25.4528 6.94345 25.4282 7.06514 25.4232C7.17523 25.4188 7.23685 25.4433 7.20217 25.4777ZM6.31144 26.5884C6.17482 26.7404 6.16678 26.8136 6.26893 26.9761C6.43312 27.2373 6.43364 27.236 6.16124 27.2564C5.97647 27.2702 5.96007 27.2531 6.0829 27.1747C6.212 27.0922 6.2143 27.0601 6.09627 26.9845C5.97887 26.9094 5.97731 26.8303 6.08687 26.529C6.18955 26.247 6.24908 26.1913 6.34967 26.2827C6.45286 26.3765 6.44492 26.4398 6.31144 26.5884ZM5.9771 26.5566C5.9771 26.6137 5.9301 26.6604 5.87265 26.6604C5.8152 26.6604 5.7682 26.6137 5.7682 26.5566C5.7682 26.4995 5.8152 26.4528 5.87265 26.4528C5.9301 26.4528 5.9771 26.4995 5.9771 26.5566ZM3.78368 29.1969C3.78368 29.2221 3.73668 29.2715 3.67923 29.3068C3.62178 29.342 3.57478 29.3214 3.57478 29.261C3.57478 29.2006 3.62178 29.1511 3.67923 29.1511C3.73668 29.1511 3.78368 29.1716 3.78368 29.1969ZM4.32681 31.0399C4.22936 31.1367 4.20147 31.1091 4.20147 30.9153C4.20147 30.7216 4.22936 30.694 4.32681 30.7908C4.42426 30.8876 4.42426 30.943 4.32681 31.0399ZM2.42585 34.019C2.42585 34.0707 2.33185 34.0886 2.21695 34.0588C2.10206 34.0289 2.00806 33.9866 2.00806 33.9647C2.00806 33.9429 2.10206 33.9249 2.21695 33.9249C2.33185 33.9249 2.42585 33.9673 2.42585 34.019ZM2.63475 34.5537C2.63475 34.6712 2.58983 34.7398 2.53489 34.7061C2.47995 34.6724 2.46147 34.5761 2.49385 34.4924C2.57667 34.2779 2.63475 34.3031 2.63475 34.5537ZM64.6766 44.273C64.5629 44.4494 64.5598 44.4491 64.617 44.2684C64.6501 44.1639 64.6809 44.0238 64.6854 43.9571C64.6913 43.8696 64.708 43.8708 64.745 43.9616C64.7732 44.0308 64.7425 44.171 64.6766 44.273ZM61.0308 48.4814C60.9217 48.7666 60.7081 48.9543 60.7081 48.765C60.7081 48.6436 61.052 48.1427 61.1027 48.1903C61.1187 48.2054 61.0863 48.3363 61.0308 48.4814ZM55.2485 51.0074C55.2138 51.0419 55.1237 51.0456 55.0483 51.0156C54.965 50.9825 54.9898 50.9579 55.1114 50.9529C55.2215 50.9485 55.2831 50.9729 55.2485 51.0074ZM53.5012 53.0092C53.5012 53.0602 53.4306 53.1288 53.3445 53.1617C53.249 53.198 53.1878 53.1618 53.1878 53.069C53.1878 52.9851 53.2583 52.9165 53.3445 52.9165C53.4306 52.9165 53.5012 52.9582 53.5012 53.0092ZM54.7214 53.3512C54.6881 53.4339 54.6633 53.4093 54.6583 53.2884C54.6538 53.179 54.6785 53.1178 54.7132 53.1522C54.7478 53.1867 54.7516 53.2762 54.7214 53.3512ZM7.38715 53.3316C7.42266 53.3887 7.40188 53.4354 7.34109 53.4354C7.2803 53.4354 7.23048 53.3887 7.23048 53.3316C7.23048 53.2746 7.25116 53.2279 7.27654 53.2279C7.30192 53.2279 7.35164 53.2746 7.38715 53.3316ZM53.7666 54.0651C53.8737 54.2373 53.7775 54.2612 53.6276 54.0995C53.5535 54.0197 53.539 53.9543 53.5954 53.9543C53.6517 53.9543 53.7287 54.0041 53.7666 54.0651ZM6.13377 54.4732C6.16928 54.5303 6.219 54.577 6.24438 54.577C6.26976 54.577 6.29044 54.5303 6.29044 54.4732C6.29044 54.4161 6.24062 54.3694 6.17983 54.3694C6.11904 54.3694 6.09826 54.4161 6.13377 54.4732ZM48.331 55.7186C48.3665 55.7756 48.3222 55.8223 48.2327 55.8223C48.1432 55.8223 48.0698 55.7756 48.0698 55.7186C48.0698 55.6615 48.114 55.6148 48.1681 55.6148C48.2222 55.6148 48.2954 55.6615 48.331 55.7186ZM48.7487 56.6526C48.7843 56.7097 48.7373 56.7564 48.6443 56.7564C48.5513 56.7564 48.5043 56.7097 48.5398 56.6526C48.5754 56.5955 48.6224 56.5488 48.6443 56.5488C48.6662 56.5488 48.7132 56.5955 48.7487 56.6526ZM44.8456 57.5183C44.7817 57.5949 44.7602 57.6883 44.798 57.7259C44.8358 57.7634 44.8119 57.7941 44.7449 57.7941C44.6052 57.7941 44.5992 57.7689 44.6864 57.5432C44.7213 57.4529 44.7976 57.379 44.8558 57.379C44.9226 57.379 44.9187 57.4307 44.8456 57.5183ZM19.2421 57.7941C19.2421 57.8512 19.1951 57.8979 19.1376 57.8979C19.0802 57.8979 19.0332 57.8512 19.0332 57.7941C19.0332 57.7371 19.0802 57.6904 19.1376 57.6904C19.1951 57.6904 19.2421 57.7371 19.2421 57.7941ZM36.3716 58.4168C36.3716 58.4739 36.3509 58.5206 36.3255 58.5206C36.3002 58.5206 36.2504 58.4739 36.2149 58.4168C36.1794 58.3597 36.2002 58.313 36.261 58.313C36.3218 58.313 36.3716 58.3597 36.3716 58.4168ZM21.2788 58.5206C21.3143 58.5777 21.2935 58.6244 21.2327 58.6244C21.1719 58.6244 21.1221 58.5777 21.1221 58.5206C21.1221 58.4635 21.1428 58.4168 21.1682 58.4168C21.1936 58.4168 21.2433 58.4635 21.2788 58.5206ZM21.8794 58.5893C21.8076 58.6182 21.6901 58.6182 21.6183 58.5893C21.5465 58.5606 21.6052 58.537 21.7488 58.537C21.8924 58.537 21.9512 58.5606 21.8794 58.5893ZM36.1627 58.8727C36.1627 58.9522 36.0975 59.0421 36.0178 59.0725C35.9162 59.1113 35.8887 59.0681 35.9256 58.9279C35.9861 58.6982 36.1627 58.6571 36.1627 58.8727ZM23.42 59.0395C23.42 59.0966 23.373 59.1433 23.3155 59.1433C23.2581 59.1433 23.2111 59.0966 23.2111 59.0395C23.2111 58.9824 23.2581 58.9357 23.3155 58.9357C23.373 58.9357 23.42 58.9824 23.42 59.0395ZM35.4211 59.5324C35.5006 59.6844 35.5056 59.766 35.4352 59.766C35.3758 59.766 35.3271 59.6959 35.3271 59.6103C35.3271 59.5247 35.2773 59.4546 35.2165 59.4546C35.1557 59.4546 35.1369 59.4048 35.1747 59.3439C35.2538 59.2169 35.2572 59.2196 35.4211 59.5324ZM35.7449 59.3508C35.7449 59.4079 35.6951 59.4546 35.6343 59.4546C35.5735 59.4546 35.5527 59.4079 35.5882 59.3508C35.6238 59.2938 35.6735 59.2471 35.6988 59.2471C35.7242 59.2471 35.7449 59.2938 35.7449 59.3508ZM18.4065 59.9735C18.4065 60.0306 18.4535 60.0773 18.5109 60.0773C18.5684 60.0773 18.6154 60.0306 18.6154 59.9735C18.6154 59.9164 18.5684 59.8697 18.5109 59.8697C18.4535 59.8697 18.4065 59.9164 18.4065 59.9735ZM22.7933 60.1231C22.7933 60.1483 22.7463 60.1977 22.6889 60.233C22.6314 60.2682 22.5844 60.2476 22.5844 60.1872C22.5844 60.1268 22.6314 60.0773 22.6889 60.0773C22.7463 60.0773 22.7933 60.0978 22.7933 60.1231ZM20.8088 60.3478C20.8088 60.3703 20.7383 60.3886 20.6521 60.3886C20.5659 60.3886 20.4954 60.3434 20.4954 60.2881C20.4954 60.2329 20.5659 60.2145 20.6521 60.2473C20.7383 60.2802 20.8088 60.3254 20.8088 60.3478Z" fill="white"/>
<path fill-rule="evenodd" clip-rule="evenodd" d="M50.8162 35.5557C50.5437 35.6131 50.5302 35.6086 50.469 35.439C50.4381 35.3534 50.3855 35.2833 50.3523 35.2833C50.2662 35.2833 50.2807 35.0236 50.374 34.8941C50.4913 34.7312 50.6267 34.7622 50.7148 34.972C50.758 35.0747 50.8236 35.1588 50.8606 35.1588C50.9174 35.1588 50.9972 35.3414 51 35.4779C51.0005 35.4993 50.9177 35.5343 50.8162 35.5557ZM50.1154 34.94C50.0076 35.0427 49.981 35.0471 49.9344 34.9695C49.9044 34.9195 49.8795 34.8575 49.8789 34.8319C49.8785 34.8062 49.8407 34.7852 49.795 34.7852C49.7004 34.7852 49.7366 35.036 49.8416 35.1087C49.876 35.1325 49.8899 35.1671 49.8724 35.1855C49.823 35.2375 49.449 35.1081 49.3936 35.0198C49.3556 34.9591 49.33 34.966 49.2831 35.0498C49.2496 35.1098 49.1953 35.1588 49.1625 35.1588C49.1297 35.1588 49.1175 35.1339 49.1353 35.1035C49.1958 35.0004 48.9959 34.8933 48.8143 34.9315C48.704 34.9548 48.6371 34.9432 48.6371 34.9009C48.6371 34.8619 48.574 34.8456 48.4894 34.8627C48.3763 34.8854 48.3416 34.8663 48.3416 34.7811C48.3416 34.7198 48.3881 34.6569 48.4451 34.6413C48.5403 34.615 48.54 34.6122 48.4412 34.6056C48.3822 34.6016 48.2758 34.6321 48.2048 34.6734C48.1338 34.7146 48.0097 34.7585 47.9291 34.7708C47.8484 34.7832 47.768 34.818 47.7502 34.8482C47.7319 34.8796 47.6806 34.8782 47.631 34.8451C47.5831 34.8132 47.5731 34.7867 47.6088 34.7861C47.6445 34.7856 47.6759 34.7011 47.6787 34.5984C47.682 34.4752 47.6549 34.4115 47.599 34.4115C47.5525 34.4115 47.5143 34.4536 47.5143 34.5049C47.5143 34.5563 47.4716 34.5984 47.4194 34.5984C47.3561 34.5984 47.3367 34.632 47.3612 34.6993C47.391 34.781 47.3726 34.7913 47.2641 34.7533C47.1904 34.7275 46.9973 34.7074 46.8348 34.7085C46.6723 34.7097 46.5197 34.6784 46.4959 34.6389C46.4673 34.5917 46.4521 34.6023 46.4516 34.6695C46.4498 34.8642 46.1569 34.8656 46.1533 34.671C46.1516 34.5766 46.1443 34.5771 46.0729 34.6762C46.0297 34.7362 45.9642 34.7852 45.9271 34.7852C45.89 34.7852 45.8597 34.8151 45.8597 34.8518C45.8597 34.8884 45.7999 34.9094 45.7268 34.8985C45.6537 34.8875 45.6024 34.8519 45.613 34.8194C45.6235 34.7868 45.5708 34.7363 45.4958 34.7071C45.409 34.6732 45.352 34.6779 45.3387 34.72C45.3272 34.7563 45.2868 34.7649 45.249 34.7393C45.1513 34.673 44.9142 34.6751 44.9142 34.7423C44.9142 34.7731 44.8757 34.7829 44.8286 34.7639C44.7714 34.7407 44.7539 34.7591 44.7759 34.8195C44.7961 34.8752 44.7724 34.9097 44.7137 34.9097C44.6615 34.9097 44.6188 34.8852 44.6188 34.8552C44.6188 34.7819 44.3302 34.7854 44.2868 34.8593C44.2677 34.8918 44.2045 34.872 44.1443 34.8146C44.0424 34.7175 44.038 34.719 44.0684 34.8417C44.0869 34.9164 44.0726 34.972 44.0348 34.972C43.9984 34.972 43.9688 34.9299 43.9688 34.8786C43.9688 34.8163 43.9097 34.7852 43.7915 34.7852C43.6536 34.7852 43.6142 34.7575 43.6142 34.6606C43.6142 34.5921 43.5876 34.5361 43.5551 34.5361C43.5226 34.5361 43.496 34.5658 43.496 34.602C43.496 34.6383 43.4649 34.6477 43.4269 34.6229C43.381 34.5931 43.3699 34.6113 43.3938 34.677C43.4445 34.8161 43.295 34.9334 43.16 34.8604C42.9694 34.7575 42.6183 34.784 42.4036 34.9175L42.1969 35.046L42.093 34.8543C42.0359 34.7489 41.95 34.6466 41.902 34.6271C41.8031 34.5867 41.6478 34.7749 41.6882 34.8861C41.7056 34.9339 41.6427 34.9595 41.5081 34.9595C41.3836 34.9595 41.2885 34.9242 41.269 34.8707C41.2284 34.7594 41.0732 34.876 41.0732 35.0179C41.0732 35.0971 41.0506 35.0952 40.9204 35.0054C40.7763 34.9058 40.7612 34.9062 40.6509 35.0113C40.5711 35.0875 40.5213 35.1008 40.4934 35.0534C40.471 35.0154 40.3198 34.9675 40.1573 34.947C39.9948 34.9266 39.895 34.9261 39.9357 34.9461C39.9763 34.966 40.0095 35.0314 40.0095 35.0913C40.0095 35.2278 39.819 35.2218 39.6709 35.0805C39.6056 35.0183 39.4787 34.9835 39.3439 34.991C39.1605 35.001 39.1236 35.0258 39.1234 35.139C39.1232 35.221 39.0753 35.2909 39.0025 35.3153C38.8569 35.3639 38.4279 35.2951 38.3813 35.2156C38.3209 35.1128 38.2475 35.156 38.1872 35.33C38.1546 35.4242 38.1258 35.4662 38.1232 35.4234C38.1207 35.3806 38.0521 35.3456 37.9708 35.3456C37.8789 35.3456 37.8231 35.3103 37.8231 35.2522C37.8231 35.2008 37.7965 35.1588 37.764 35.1588C37.7315 35.1588 37.7049 35.2008 37.7049 35.2522C37.7049 35.3522 37.6495 35.3605 37.0808 35.3466C36.7501 35.3385 36.7173 35.3501 36.6536 35.4974C36.5773 35.674 36.3633 35.7152 36.3082 35.5639C36.2895 35.5127 36.2523 35.4851 36.2254 35.5026C36.1986 35.5201 36.1582 35.5029 36.1356 35.4645C36.1055 35.4131 36.0834 35.4137 36.0524 35.4666C36.0291 35.5062 35.9461 35.5421 35.8677 35.5464C35.7894 35.5506 35.6752 35.5983 35.614 35.6523C35.5097 35.7443 35.5053 35.7417 35.5441 35.6102C35.5778 35.496 35.5629 35.4701 35.4633 35.4701C35.3961 35.4701 35.3412 35.4934 35.3412 35.5219C35.3412 35.5988 34.9323 35.7169 34.8188 35.6729C34.7648 35.652 34.7011 35.6048 34.6773 35.5681C34.6509 35.5274 34.6335 35.5425 34.6329 35.6065C34.6316 35.7688 34.5346 35.796 34.3383 35.689C34.2235 35.6264 34.1593 35.6162 34.1593 35.6605C34.1593 35.6985 34.126 35.717 34.0855 35.7016C33.994 35.6671 33.7916 35.7709 33.8283 35.8335C33.8431 35.8587 33.8106 35.883 33.7561 35.8875C33.5946 35.9009 33.4564 35.941 33.4125 35.9872C33.3899 36.011 33.2987 36.0305 33.2098 36.0305C33.0933 36.0305 33.0121 35.974 32.9191 35.8282C32.8251 35.6806 32.7974 35.6617 32.8171 35.758C32.8386 35.8627 32.8213 35.8839 32.7336 35.8597C32.6727 35.8429 32.6229 35.8615 32.6229 35.901C32.6229 35.9536 32.5912 35.9548 32.5035 35.9053C32.3406 35.8135 32.251 35.8871 32.296 36.076C32.3291 36.215 32.3234 36.222 32.2446 36.139C32.0417 35.9251 31.2348 35.9365 31.0263 36.1563C30.936 36.2514 30.8607 36.2786 30.7708 36.2484C30.5485 36.1738 30.2909 36.1632 30.2534 36.2271C30.2317 36.2642 30.1802 36.2498 30.1243 36.1908C30.0044 36.0645 29.9046 36.0656 29.9046 36.1932C29.9046 36.2693 29.8618 36.2871 29.7288 36.2665C29.6321 36.2516 29.5423 36.2695 29.5292 36.3062C29.5145 36.3474 29.4094 36.317 29.2554 36.2272C29.0747 36.1218 28.9876 36.1002 28.9409 36.1493C28.9054 36.1868 28.8019 36.2173 28.7109 36.2173C28.5935 36.2173 28.545 36.2489 28.5437 36.3263C28.542 36.4294 28.5386 36.4294 28.4811 36.3253C28.4382 36.2477 28.3928 36.2315 28.3268 36.2705C28.2166 36.3354 28.0136 36.2919 28.0136 36.2034C28.0136 36.1695 27.9708 36.1591 27.9184 36.1802C27.8503 36.2078 27.8329 36.192 27.8575 36.1246C27.9021 36.0021 27.8429 36.005 27.7098 36.1319C27.6372 36.2012 27.4837 36.2357 27.2257 36.2409C26.9502 36.2464 26.8554 36.2696 26.8757 36.3263C26.912 36.4278 26.6439 36.4304 26.5481 36.3294C26.5078 36.2869 26.4772 36.2818 26.4772 36.3176C26.4772 36.3535 26.2742 36.3868 26.0045 36.3953C25.6887 36.4051 25.5317 36.3871 25.5317 36.3408C25.5317 36.3028 25.4586 36.2774 25.3692 36.2845C25.1733 36.2999 24.9408 36.2246 24.9408 36.1456C24.9408 36.113 24.9891 36.1157 25.0531 36.1518C25.1394 36.2005 25.1737 36.1922 25.2015 36.1159C25.232 36.0323 25.2028 36.0228 25.0153 36.0555C24.8931 36.0769 24.7466 36.0957 24.6897 36.0974C24.6328 36.0992 24.5863 36.1233 24.5863 36.1512C24.5863 36.179 24.5198 36.2018 24.4385 36.2018C24.3573 36.2018 24.2908 36.1772 24.2908 36.1473C24.2908 36.1173 24.2509 36.0928 24.2021 36.0928C24.1534 36.0928 24.1135 36.0508 24.1135 35.9994C24.1135 35.8859 23.9874 35.8773 23.8853 35.9838C23.8255 36.0462 23.7991 36.04 23.7523 35.9527C23.7202 35.8927 23.6288 35.8437 23.5492 35.8437C23.4696 35.8437 23.4044 35.8113 23.4044 35.7718C23.4044 35.7298 23.3576 35.7445 23.2919 35.8072C23.1953 35.8993 23.1602 35.9029 23.0435 35.8324C22.9686 35.7873 22.8636 35.6962 22.8099 35.6301C22.6797 35.4696 22.1417 35.43 21.9442 35.5663C21.8071 35.661 21.8066 35.6649 21.9105 35.8533C21.9684 35.9582 22.0588 36.0621 22.1115 36.0841C22.2865 36.1569 22.6781 36.5725 22.7141 36.7236C22.7336 36.8055 22.8237 36.9187 22.9145 36.9753C23.2362 37.1762 23.4044 37.3696 23.4044 37.539C23.4044 37.637 23.4553 37.7423 23.529 37.7967C23.5975 37.8473 23.6358 37.9189 23.6141 37.9559C23.5924 37.9929 23.6057 38.0231 23.6436 38.0231C23.6815 38.0231 23.6972 38.0652 23.6785 38.1165C23.6554 38.1801 23.6817 38.2099 23.7608 38.2099C23.8248 38.2099 23.8771 38.236 23.8771 38.2678C23.8771 38.2996 23.9226 38.3736 23.9783 38.4322C24.034 38.4908 24.0854 38.5811 24.0926 38.6328C24.0997 38.6845 24.1276 38.7436 24.1545 38.7641C24.2473 38.8352 24.5227 39.3213 24.5608 39.4814C24.5818 39.5698 24.6219 39.6421 24.6497 39.6421C24.6775 39.6421 24.782 39.7262 24.8817 39.8289C24.9815 39.9317 25.1011 40.0157 25.1476 40.0157C25.2479 40.0157 25.3753 40.2412 25.3241 40.3284C25.3045 40.3619 25.3185 40.3894 25.3552 40.3894C25.4784 40.3894 25.6033 40.5787 25.6119 40.7785C25.6222 41.0196 25.4709 41.0827 25.3839 40.8736C25.3514 40.7956 25.2717 40.7278 25.2067 40.7229C25.1417 40.718 25.0318 40.711 24.9623 40.7073C24.8016 40.6989 24.2909 40.1814 24.1416 39.8756C24.0789 39.7472 23.9868 39.6421 23.937 39.6421C23.8221 39.6421 23.6914 39.4264 23.7345 39.308C23.7572 39.2459 23.7112 39.2051 23.5859 39.1761C23.4173 39.1371 23.3746 39.064 23.3985 38.8549C23.403 38.8158 23.3607 38.7878 23.3046 38.7927C23.246 38.7978 23.1674 38.7258 23.12 38.6237C23.0248 38.4187 22.8403 38.2099 22.7544 38.2099C22.7219 38.2099 22.6953 38.1599 22.6953 38.0988C22.6953 38.0377 22.5614 37.8627 22.3979 37.71C22.2342 37.5572 22.0312 37.327 21.9466 37.1985C21.862 37.0698 21.7576 36.9646 21.7146 36.9646C21.5088 36.9646 21.2175 36.7354 21.1212 36.4976C21.0657 36.3606 21.0248 36.2274 21.0304 36.2018C21.0361 36.1761 20.9875 36.1551 20.9225 36.1551C20.8575 36.1551 20.8043 36.1271 20.8043 36.0928C20.8043 36.0586 20.7378 36.0305 20.6566 36.0305C20.5646 36.0305 20.5088 35.9952 20.5088 35.9371C20.5088 35.8858 20.4556 35.7877 20.3906 35.7192C20.3256 35.6507 20.2725 35.5666 20.2725 35.5324C20.2725 35.4981 20.2459 35.4701 20.2134 35.4701C20.1809 35.4701 20.1543 35.4304 20.1543 35.3819C20.1543 35.3334 20.1245 35.2832 20.088 35.2704C20.0516 35.2577 20.0158 35.1432 20.0085 35.0162C19.9987 34.8461 20.0186 34.7852 20.0839 34.7852C20.1579 34.7852 20.1557 34.7655 20.0701 34.6658C19.988 34.5703 19.9808 34.5204 20.0338 34.4159C20.0866 34.3122 20.123 34.2983 20.2111 34.348C20.2901 34.3926 20.3288 34.3891 20.3457 34.3358C20.3587 34.2947 20.4734 34.2541 20.6007 34.2455C20.7281 34.2369 20.8414 34.2008 20.8527 34.1651C20.864 34.1294 20.9375 34.1002 21.016 34.1002C21.0946 34.1002 21.1589 34.0715 21.1589 34.0364C21.1589 34.0013 21.2253 33.946 21.3066 33.9134C21.3878 33.8808 21.4543 33.8274 21.4543 33.7946C21.4543 33.7618 21.5075 33.7172 21.5725 33.6954C21.6375 33.6737 21.6907 33.6203 21.6907 33.5767C21.6907 33.5331 21.7572 33.4656 21.8384 33.4266C21.9197 33.3875 21.9862 33.3321 21.9862 33.3033C21.9862 33.2746 22.1456 33.1408 22.3404 33.0062C22.5353 32.8716 22.6948 32.741 22.695 32.7161C22.6955 32.6454 23.3642 31.9212 23.4323 31.9175C23.4657 31.9157 23.626 31.7433 23.7885 31.5343C23.951 31.3254 24.1903 31.0727 24.3203 30.9727C24.4503 30.8727 24.55 30.779 24.5419 30.7643C24.502 30.6925 24.545 30.6132 24.7488 30.3825C24.8706 30.2445 25.0874 29.9898 25.2305 29.8163C25.3736 29.6429 25.5531 29.4845 25.6294 29.4643C25.768 29.4277 25.801 29.3227 25.7743 29.0044C25.7572 28.801 25.8761 28.6587 25.9842 28.7532C26.0869 28.843 26.1188 28.8107 26.1354 28.5999C26.1491 28.4248 26.2999 28.3629 26.2999 28.5323C26.2999 28.5865 26.3329 28.6193 26.3733 28.6051C26.4136 28.591 26.4759 28.6096 26.5117 28.6467C26.5474 28.6837 26.659 28.7798 26.7596 28.8604C26.9512 29.0137 27.0955 29.3331 27.0263 29.4509C27.0041 29.4889 26.9913 29.5942 26.9978 29.685C27.0044 29.7757 26.9698 29.885 26.9208 29.9279C26.8719 29.9706 26.8318 30.0433 26.8318 30.0893C26.8318 30.1353 26.7786 30.2028 26.7136 30.2395C26.6486 30.2762 26.5958 30.3402 26.5963 30.3818C26.597 30.4345 26.6126 30.4319 26.648 30.373C26.684 30.3132 26.7108 30.3089 26.7398 30.3583C26.8093 30.4768 26.4662 30.9756 26.2999 30.998C26.189 31.013 26.1506 31.0566 26.1458 31.1736C26.1321 31.5056 26.1199 31.5472 26.0359 31.5472C25.9882 31.5472 25.9616 31.5822 25.9769 31.625C26.0087 31.7141 25.6801 32.1073 25.573 32.1082C25.5341 32.1086 25.449 32.1799 25.384 32.2667C25.319 32.3536 25.1927 32.5084 25.1033 32.6107C25.0139 32.7131 24.9408 32.8252 24.9408 32.8599C24.9408 32.9209 24.8354 33.0356 24.4971 33.3429C24.3815 33.4481 24.3189 33.4697 24.2724 33.4208C24.1404 33.2817 24.0429 33.3431 24.084 33.5397C24.1161 33.6941 24.1066 33.7199 24.0289 33.6885C23.9576 33.6596 23.9446 33.6771 23.9752 33.761C24.0009 33.8318 23.9927 33.8568 23.9524 33.8305C23.9178 33.808 23.8268 33.8445 23.7503 33.9116C23.6738 33.9788 23.6321 34.0347 23.6576 34.0359C23.6831 34.037 23.6761 34.0929 23.6419 34.1602C23.6078 34.2274 23.5438 34.2678 23.4996 34.25C23.4474 34.2288 23.4084 34.2784 23.3876 34.3924C23.3701 34.4885 23.36 34.5708 23.3653 34.5751C23.3705 34.5794 23.438 34.6034 23.5152 34.6284C23.6044 34.6573 23.6421 34.6511 23.6188 34.6112C23.5848 34.5533 23.658 34.5502 24.1578 34.5883C24.2506 34.5953 24.2908 34.638 24.2908 34.7295C24.2908 34.8195 24.3181 34.8497 24.3777 34.8256C24.4255 34.8063 24.5034 34.8313 24.5508 34.8812C24.5988 34.9319 24.7465 34.972 24.8847 34.972C25.0984 34.972 25.1224 34.9591 25.059 34.8786C25.0185 34.8272 24.9954 34.7829 25.0075 34.78C25.1299 34.7511 25.2954 34.7511 25.2954 34.78C25.2955 34.8249 25.8989 34.8213 25.9771 34.7758C26.0084 34.7576 26.2349 34.7469 26.4804 34.7519C26.793 34.7583 26.9697 34.7926 27.0698 34.8665C27.1632 34.9355 27.3285 34.972 27.5472 34.972C27.842 34.972 27.8867 34.9553 27.9244 34.8319C27.9633 34.7042 27.9697 34.7022 27.9963 34.8098C28.0198 34.9043 28.0358 34.9105 28.0769 34.8409C28.1189 34.7698 28.1501 34.7683 28.2482 34.8324C28.3142 34.8755 28.3682 34.8885 28.3682 34.8613C28.3682 34.8341 28.4148 34.8064 28.4716 34.7997C28.5285 34.7931 28.6659 34.7756 28.7769 34.7607C28.888 34.7459 29.0424 34.7593 29.1201 34.7904C29.1978 34.8216 29.249 34.8261 29.2339 34.8005C29.2187 34.7749 29.4034 34.7632 29.6441 34.7745C29.999 34.7911 30.0819 34.7776 30.0819 34.7033C30.0819 34.5765 30.2365 34.5257 30.3159 34.6264C30.4124 34.749 30.6137 34.7908 30.6137 34.6883C30.6137 34.6213 30.7478 34.6037 31.2386 34.6061C31.7525 34.6086 31.8838 34.5899 31.9773 34.5007C32.0833 34.3996 32.0985 34.3993 32.1991 34.4953C32.2586 34.552 32.3517 34.5983 32.406 34.5983C32.4603 34.5983 32.5047 34.6219 32.5047 34.6506C32.5047 34.6794 32.5744 34.7364 32.6597 34.7773C32.8075 34.8483 32.8134 34.8443 32.7857 34.6918C32.7697 34.6038 32.7696 34.5454 32.7855 34.5621C32.8013 34.5788 32.8529 34.5517 32.9 34.502C33.0138 34.3822 33.0956 34.3874 33.0956 34.5146C33.0956 34.6073 33.1075 34.6063 33.2138 34.5049C33.3201 34.4036 33.332 34.4026 33.332 34.4953C33.332 34.6247 33.3877 34.6271 33.475 34.5013C33.5267 34.4267 33.577 34.4181 33.6914 34.4639C33.7861 34.5019 33.8773 34.502 33.9413 34.4642C33.9967 34.4315 34.0714 34.4239 34.1073 34.4473C34.1432 34.4706 34.1982 34.4511 34.2295 34.4039C34.2693 34.344 34.2949 34.3396 34.3144 34.3894C34.345 34.4676 34.5165 34.4353 34.7487 34.3076C34.9305 34.2076 35.223 34.199 35.223 34.2937C35.223 34.3316 35.2629 34.3465 35.3116 34.3267C35.3604 34.3071 35.4003 34.3181 35.4003 34.3512C35.4003 34.3844 35.4269 34.4115 35.4594 34.4115C35.4919 34.4115 35.5185 34.3739 35.5185 34.3278C35.5185 34.2817 35.5685 34.1963 35.6296 34.1381C35.73 34.0424 35.7497 34.0414 35.8322 34.1284C35.8825 34.1814 35.9521 34.2247 35.987 34.2247C36.0218 34.2247 36.0503 34.2711 36.0503 34.3278C36.0503 34.4216 36.0605 34.4211 36.1647 34.3218C36.2508 34.2396 36.393 34.2104 36.7409 34.2031C37.0988 34.1957 37.1987 34.1743 37.1853 34.1078C37.1726 34.0447 37.2038 34.0342 37.3035 34.0681C37.511 34.1388 37.7148 34.1215 37.7708 34.0285C37.8092 33.9646 37.8215 33.9634 37.8222 34.0235C37.8228 34.0767 37.8715 34.0897 37.9708 34.0635C38.0599 34.0399 38.1185 34.0511 38.1185 34.0915C38.1185 34.1284 38.1568 34.1431 38.2035 34.1242C38.2506 34.1052 38.273 34.0478 38.2539 33.9953C38.2291 33.927 38.2506 33.9078 38.3315 33.9263C38.3932 33.9404 38.4369 33.9853 38.4288 34.026C38.4206 34.0668 38.4539 34.1002 38.5027 34.1002C38.5514 34.1002 38.5913 34.1282 38.5913 34.1625C38.5913 34.2547 38.7053 34.238 38.8071 34.1308C38.8561 34.0791 38.9177 34.0508 38.9439 34.0678C38.9701 34.0849 39.0238 34.0579 39.0632 34.0079C39.1259 33.9282 39.1461 33.9287 39.2251 34.0119C39.2747 34.0642 39.385 34.0985 39.4704 34.088C39.5973 34.0725 39.6223 34.0409 39.608 33.9134C39.5952 33.799 39.6054 33.7808 39.6465 33.8448C39.6939 33.9187 39.7385 33.9166 39.9428 33.8304C40.2239 33.712 40.3841 33.7491 40.3323 33.9207C40.2765 34.106 40.5326 34.0692 40.7134 33.8659C40.8519 33.7103 40.9083 33.693 41.3096 33.6836C41.5533 33.6778 41.8525 33.6534 41.9744 33.6294C42.1208 33.6006 42.196 33.6089 42.196 33.654C42.196 33.6915 42.2532 33.7545 42.3231 33.7939C42.4308 33.8546 42.4447 33.8505 42.4143 33.7669C42.361 33.6204 42.4746 33.5796 42.6831 33.6706C42.8247 33.7324 42.8732 33.7338 42.8913 33.6766C42.9207 33.5838 43.0824 33.5776 43.0824 33.6692C43.0824 33.7111 43.1474 33.7214 43.2551 33.6965C43.4119 33.6602 43.4252 33.6698 43.3996 33.8006C43.3802 33.8995 43.3984 33.8832 43.4579 33.7484C43.5316 33.5813 43.5761 33.5522 43.7583 33.5522C43.8759 33.5522 44.0112 33.5935 44.0591 33.6438C44.1069 33.6943 44.146 33.7117 44.146 33.6827C44.146 33.6123 44.6283 33.6613 44.7222 33.7412C44.7708 33.7826 44.7961 33.7829 44.7961 33.742C44.7961 33.627 45.4248 33.6265 45.599 33.7413C45.7453 33.8378 46.1499 33.8989 46.1747 33.8283C46.1928 33.7769 46.2203 33.7783 46.2757 33.8334C46.336 33.8932 46.3672 33.8871 46.4245 33.8046C46.4857 33.7164 46.5117 33.7131 46.592 33.7832C46.6443 33.829 46.687 33.8455 46.687 33.82C46.687 33.7945 46.7281 33.8095 46.7784 33.8535C46.8286 33.8974 46.8565 33.9694 46.8404 34.0136C46.8221 34.0639 46.8432 34.081 46.8969 34.0592C46.9932 34.0203 47.0148 33.8511 46.9234 33.8511C46.8909 33.8511 46.8643 33.8187 46.8643 33.7792C46.8643 33.7362 46.9077 33.7487 46.9724 33.8103C47.0318 33.867 47.1382 33.9134 47.2088 33.9134C47.2793 33.9134 47.3371 33.9414 47.3371 33.9757C47.3371 34.0099 47.3682 34.0379 47.4063 34.0379C47.4443 34.0379 47.5241 34.0843 47.5835 34.141C47.6851 34.2378 47.6916 34.2359 47.6916 34.1099C47.6916 34.0361 47.7116 33.9734 47.7359 33.9706C47.7603 33.9678 47.8534 33.9527 47.9428 33.9373C48.0325 33.9217 48.1053 33.938 48.1053 33.9735C48.1053 34.009 48.1452 34.0379 48.1939 34.0379C48.2427 34.0379 48.2825 34.08 48.2825 34.1313C48.2825 34.1827 48.3091 34.2247 48.3416 34.2247C48.3741 34.2247 48.4007 34.199 48.4007 34.1674C48.4007 34.1359 48.4852 34.0905 48.5885 34.0666C48.728 34.0343 48.7942 34.0491 48.8461 34.124C48.8846 34.1794 48.9463 34.2247 48.9834 34.2247C49.0204 34.2247 49.0508 34.2649 49.0508 34.314C49.0508 34.3728 49.1112 34.4014 49.228 34.3979C49.3255 34.395 49.4053 34.3694 49.4053 34.3411C49.4053 34.2769 49.7005 34.4112 49.8163 34.5281C49.8753 34.5877 49.9093 34.593 49.9245 34.5449C49.9405 34.4943 49.9795 34.4933 50.0647 34.5414C50.1296 34.5779 50.1688 34.646 50.1519 34.6925C50.1349 34.739 50.1482 34.7867 50.1814 34.7983C50.2145 34.8099 50.1848 34.8737 50.1154 34.94ZM45.1547 34.5076C45.1244 34.4879 45.083 34.5003 45.0626 34.5351C45.0422 34.5699 45.0669 34.5984 45.1176 34.5984C45.2214 34.5984 45.2367 34.561 45.1547 34.5076ZM44.7043 34.0141C44.6518 33.9929 44.6281 34.0034 44.6487 34.0386C44.6686 34.0725 44.7098 34.1002 44.7405 34.1002C44.8254 34.1002 44.8067 34.0556 44.7043 34.0141ZM44.4638 33.7266C44.3322 33.7266 44.32 33.7408 44.383 33.8207C44.4394 33.8924 44.4765 33.898 44.538 33.8443C44.6517 33.7448 44.6402 33.7266 44.4638 33.7266ZM44.4415 34.2559C44.409 34.277 44.3824 34.3207 44.3824 34.3529C44.3824 34.3852 44.409 34.4115 44.4415 34.4115C44.474 34.4115 44.5006 34.3678 44.5006 34.3145C44.5006 34.2611 44.474 34.2347 44.4415 34.2559ZM43.6564 33.896C43.6121 33.8781 43.5805 33.9113 43.5805 33.9757C43.5805 34.04 43.6121 34.0732 43.6564 34.0553C43.6982 34.0384 43.7324 34.0026 43.7324 33.9757C43.7324 33.9488 43.6982 33.9129 43.6564 33.896ZM34.4301 34.8269C34.384 34.8083 34.3317 34.8333 34.3138 34.8825C34.2923 34.9416 34.3207 34.972 34.3975 34.972C34.532 34.972 34.5534 34.8768 34.4301 34.8269ZM32.7525 35.3751C32.7343 35.3942 32.7524 35.4445 32.7929 35.4867C32.8512 35.5478 32.858 35.5406 32.8259 35.4519C32.8037 35.3905 32.7707 35.3559 32.7525 35.3751ZM32.3274 34.8474C32.2829 34.7749 32.2699 34.7931 32.2692 34.9289C32.2687 35.0299 32.2933 35.0876 32.3274 35.0654C32.4008 35.0176 32.4008 34.967 32.3274 34.8474ZM25.6267 36.0305C25.6139 36.0305 25.5882 36.0726 25.5694 36.1239C25.5508 36.1753 25.5612 36.2173 25.5927 36.2173C25.6242 36.2173 25.6499 36.1753 25.6499 36.1239C25.6499 36.0726 25.6395 36.0305 25.6267 36.0305ZM25.6239 34.8474C25.6095 34.8474 25.5814 34.8754 25.5613 34.9097C25.5412 34.9439 25.553 34.972 25.5873 34.972C25.6217 34.972 25.6499 34.9439 25.6499 34.9097C25.6499 34.8754 25.6382 34.8474 25.6239 34.8474Z" fill="white"/>
</svg>
